<svg xmlns="http://www.w3.org/2000/svg" width="3000" height="1000" viewBox="0 0 3000 1000"><path fill="#E92247" d="M-430.534-184h3628.534v1373.848h-3628.534z"/><g><path fill="#fff" stroke="#E92247" stroke-width="11.144" stroke-miterlimit="10" d="M2839.756 33.099c-159.325-293.368-526.296-402.025-819.657-242.701-293.367 159.324-402.025 526.292-242.701 819.658 159.323 293.363 526.29 402.025 819.656 242.7 293.367-159.323 402.026-526.295 242.702-819.657z"/><path fill="#EB1F46" d="M2020.272-209.282c-293.368 159.324-402.024 526.292-242.702 819.657 114.979 211.71 338.102 327.199 563.657 315.226-1.157-4.181-2.344-8.426-3.613-12.828l.004-.002c-25.72-89.334-74.15-165.354-77.59-170.691l-2.549.678-33.288-61.297 25.765-13.992-107.51-197.96-9.841 1.528-29.489-54.296 21.674-11.77 14.977 27.576 15.812-8.589-14.99-27.565 20.725-11.254 14.975 27.574 13.379-7.264-14.977-27.577 21.531-11.692 14.977 27.574 14.156-7.688-14.976-27.575 20.611-11.194 29.489 54.294-5.295 6.74-.242.131 107.492 197.921 24.893-13.52-107.51-197.959-.939.511-7.333 1.255-13.118-24.153 8.006-4.347c-11.668-21.53-7.147-47.773 6.556-66.216l-.778.423s-13.163-21.228 4.273-35.175l-12.815-23.598-15.534 8.437-5.474-10.078 15.536-8.436-7.002-12.891 9.636-5.233 7.003 12.892 15.527-8.434 5.474 10.075-15.53 8.435 12.815 23.598c21.188-7.028 31.827 15.569 31.827 15.569l-1.275.691c22.935-1.455 47.411 9.042 59.115 30.55l8.323-4.52 13.118 24.153-5.053 5.471-1.24.673 107.511 197.959 25.025-13.592-107.491-197.923-.244.133-8.534.771-29.487-54.294 20.612-11.194 14.975 27.575 14.157-7.689-14.974-27.575 21.531-11.693 14.974 27.575 13.384-7.267-14.977-27.575 20.721-11.252 14.955 27.584 15.819-8.591-14.976-27.575 21.666-11.768 29.49 54.295-6.633 7.418 107.51 197.96 25.768-13.997 33.29 61.298-1.959 1.776c2.602 5.804 39.992 87.809 100.925 158.011 2.375 2.741 4.703 5.395 6.999 7.996 129.752-182.223 152.907-429.685 38.956-639.505-159.324-293.365-526.292-402.023-819.656-242.699zm160.731 541.721l-20.423 11.089-.604 23.222-19.803-12.138-20.412 11.085.607-23.199-19.792-12.129 20.41-11.084.608-23.206 19.797 12.122 20.424-11.091-.608 23.209 19.796 12.12zm272.715-148.11l-20.405 11.082-.603 23.223-19.818-12.133-20.423 11.092.622-23.206-19.807-12.123 20.421-11.091.622-23.212 19.799 12.121 20.404-11.082-.61 23.209 19.798 12.12z"/><path fill="#E92247" d="M2499.036 621.586c-7.861 16.678-2.783 29.141-2.783 29.141-1.987-.821-22.906-6.062-38.135-49.667-20.168 52.283 19.217 100.106 19.217 100.106s-19.514-11.993-36.659-5.31c33.148 25.745 21.529 70.021 38.481 101.23 21.464 39.524 70.912 54.17 110.433 32.707 39.524-21.466 54.165-70.916 32.698-110.44-32.096-59.098-108.502-46.92-123.252-97.767z"/><path fill="#fff" d="M2516.505 695.212c-34.8 18.899-47.686 62.435-28.789 97.227 18.902 34.808 62.436 47.699 97.234 28.8 34.799-18.897 47.693-62.437 28.791-97.242-18.896-34.795-62.438-47.685-97.236-28.785m62.819 115.668c-29.038 15.771-65.49 4.979-81.261-24.061-15.766-29.029-4.979-65.489 24.061-81.26 29.035-15.771 65.496-4.967 81.262 24.061 15.769 29.039 4.974 65.49-24.062 81.26"/><path fill="#fff" d="M2582.974 724.768l-.11-.124-.21-.246-.134-.133-.226-.201-.164-.121-.234-.158-.178-.107-.25-.126-.192-.077-.27-.099-.198-.061-.277-.054-.215-.031-.081-.01-48.497-4.398c-1.536-.141-3.006.658-3.719 2.019l-22.723 43.077-.037.073-.083.194-.101.257-.068.211-.062.275-.037.204-.037.28-.009.209.009.279.011.205.051.296.033.186.095.312.046.158c.062.15.129.304.207.451l12.896 23.746c.082.148.175.289.267.422l.107.126.211.248.14.135.223.205.166.118.229.161.181.104.25.12.194.085.265.091.207.054.276.061.207.033.084.014 48.508 4.396c.762.068 1.515-.092 2.161-.441.65-.354 1.189-.894 1.558-1.577l22.712-43.078.035-.074.09-.198.103-.265.061-.197.065-.273.04-.209.028-.275.01-.202-.005-.284-.012-.204-.048-.301-.039-.188-.094-.312-.042-.159-.212-.452-12.896-23.746-.266-.424m-44.839 2.28l35.731 3.239-7.459 14.206-19.793-1.83-8.479-15.615zm-6.699 3.639l8.48 15.613-9.242 17.6-15.978-1.477 16.74-31.736zm-16.015 39.458l11.418 1.048-5.332 10.159-6.086-11.207zm47.901 19.255l-35.733-3.241 7.459-14.203 19.793 1.829 8.481 15.615zm-8.296-23.257l-16.146-1.49 7.544-14.349 16.142 1.486-7.54 14.353zm14.995 19.619l-8.482-15.615 9.243-17.599 15.976 1.477-16.737 31.737zm16.01-39.454l-11.419-1.062 5.333-10.144 6.086 11.206z"/></g><g fill="#F9F9F9"><path d="M294.448 241.291l-1.676 8.8c-.419 2.189-1.339 3.784-2.759 4.785-1.421 1.001-3.667 1.501-6.74 1.501h-4.4l-2.864 16.483h7.543c2.188 0 3.748.641 4.68 1.92.931 1.281 1.14 3.458.628 6.53l-1.117 6.705h-13.829l-4.889 27.588h-10.058c-.978 0-1.897-.232-2.758-.698-.862-.465-1.583-1.094-2.166-1.886-.583-.792-.99-1.699-1.222-2.724-.233-1.023-.233-2.118 0-3.283l3.353-18.997h-11.523l-3.422 20.045c-.233 1.351-.664 2.503-1.292 3.457-.628.955-1.374 1.735-2.235 2.34-.862.605-1.816 1.048-2.864 1.327-1.047.279-2.13.419-3.248.419h-9.638l4.889-27.588h-6.146c-2.189 0-3.749-.64-4.68-1.921-.932-1.28-1.142-3.457-.628-6.53l1.117-6.705h12.432l2.863-16.483h-13.898l1.676-8.8c.419-2.141 1.338-3.725 2.759-4.749 1.42-1.024 3.667-1.537 6.74-1.537h4.749l3.632-20.463c.419-2.188 1.478-3.899 3.178-5.134 1.699-1.233 3.667-1.851 5.901-1.851h9.917l-4.889 27.448h11.594l4.889-27.448h9.638c1.118 0 2.13.187 3.038.559.908.373 1.676.873 2.305 1.501.628.629 1.083 1.374 1.362 2.235.279.862.325 1.805.14 2.829l-3.632 20.324h13.55zm-33.314 15.086h-11.594l-2.864 16.483h11.594l2.864-16.483zM387.335 289.272c.559 0 1.117.104 1.676.314.559.21 1.093.571 1.606 1.083l9.358 9.848c-4.098 5.355-9.231 9.394-15.4 12.118-6.17 2.724-13.469 4.086-21.896 4.086-7.729 0-14.656-1.315-20.777-3.946-6.124-2.63-11.314-6.262-15.575-10.896-4.261-4.632-7.532-10.127-9.813-16.483-2.282-6.355-3.422-13.257-3.422-20.708 0-7.589 1.233-14.562 3.702-20.917 2.467-6.356 5.937-11.838 10.407-16.448 4.47-4.609 9.824-8.194 16.063-10.756 6.239-2.56 13.106-3.841 20.604-3.841 3.817 0 7.414.338 10.791 1.013 3.375.676 6.53 1.606 9.463 2.794 2.934 1.187 5.633 2.619 8.101 4.295s4.656 3.492 6.565 5.448l-7.961 10.685c-.513.653-1.118 1.247-1.816 1.781-.699.536-1.676.803-2.934.803-.838 0-1.63-.186-2.375-.559-.745-.372-1.537-.826-2.375-1.362-.838-.535-1.758-1.117-2.759-1.746-1.002-.628-2.189-1.21-3.562-1.746-1.374-.535-2.98-.989-4.819-1.362-1.84-.372-3.993-.559-6.46-.559-3.911 0-7.485.722-10.721 2.165-3.237 1.444-6.031 3.551-8.381 6.321-2.351 2.771-4.167 6.17-5.447 10.197-1.281 4.028-1.92 8.626-1.92 13.794 0 5.215.709 9.848 2.13 13.899 1.42 4.05 3.352 7.462 5.796 10.231 2.445 2.771 5.296 4.878 8.556 6.321 3.259 1.444 6.751 2.165 10.477 2.165 2.141 0 4.097-.104 5.867-.314 1.769-.209 3.422-.559 4.959-1.047 1.536-.489 2.979-1.141 4.33-1.956 1.35-.814 2.724-1.851 4.121-3.108.559-.465 1.163-.849 1.816-1.153.651-.302 1.327-.454 2.025-.454zM521.778 264.688c0 7.358-1.269 14.202-3.806 20.534-2.539 6.333-6.111 11.838-10.721 16.518-4.61 4.68-10.162 8.346-16.658 11-6.495 2.654-13.7 3.981-21.615 3.981-7.917 0-15.133-1.327-21.651-3.981-6.519-2.654-12.094-6.32-16.727-11-4.633-4.68-8.218-10.185-10.755-16.518-2.539-6.332-3.807-13.176-3.807-20.534 0-7.356 1.268-14.201 3.807-20.534 2.537-6.332 6.122-11.826 10.755-16.482 4.633-4.655 10.208-8.311 16.727-10.965s13.735-3.981 21.651-3.981c7.915 0 15.121 1.339 21.615 4.016 6.496 2.678 12.048 6.345 16.658 11 4.609 4.656 8.182 10.151 10.721 16.482 2.537 6.333 3.806 13.155 3.806 20.464zm-24.165 0c0-5.028-.653-9.556-1.956-13.584-1.304-4.027-3.178-7.438-5.623-10.232-2.444-2.793-5.436-4.935-8.974-6.425-3.539-1.49-7.567-2.235-12.083-2.235-4.564 0-8.625.745-12.188 2.235-3.562 1.491-6.565 3.632-9.01 6.425-2.444 2.794-4.319 6.206-5.622 10.232-1.304 4.028-1.956 8.556-1.956 13.584 0 5.076.651 9.627 1.956 13.654 1.303 4.028 3.178 7.438 5.622 10.231 2.444 2.794 5.448 4.924 9.01 6.391 3.562 1.467 7.624 2.2 12.188 2.2 4.516 0 8.543-.733 12.083-2.2 3.538-1.466 6.53-3.597 8.974-6.391 2.444-2.793 4.318-6.204 5.623-10.231 1.303-4.027 1.956-8.578 1.956-13.654zM641.974 264.688c0 7.358-1.269 14.144-3.806 20.359-2.539 6.216-6.111 11.594-10.72 16.134-4.61 4.54-10.162 8.079-16.657 10.616-6.496 2.539-13.701 3.807-21.616 3.807h-39.53v-101.76h39.53c7.915 0 15.121 1.281 21.616 3.841 6.495 2.561 12.047 6.1 16.657 10.616 4.609 4.516 8.182 9.882 10.72 16.098 2.537 6.216 3.806 12.98 3.806 20.289zm-24.164 0c0-5.028-.653-9.568-1.956-13.619-1.304-4.051-3.178-7.484-5.623-10.302-2.444-2.817-5.437-4.982-8.975-6.496-3.539-1.512-7.567-2.27-12.083-2.27h-15.784v65.442h15.784c4.516 0 8.543-.756 12.083-2.27 3.538-1.512 6.53-3.677 8.975-6.495 2.445-2.817 4.318-6.251 5.623-10.301 1.303-4.05 1.956-8.613 1.956-13.689zM693.655 232.002v23.747h31.987v17.46h-31.987v24.235h41.765v18.159h-65.511v-101.76h65.511v18.159h-41.765zM799.813 213.843c7.169 0 13.328.85 18.473 2.549 5.145 1.7 9.382 4.04 12.711 7.019 3.328 2.98 5.785 6.496 7.368 10.546 1.583 4.051 2.375 8.428 2.375 13.13 0 5.076-.815 9.732-2.444 13.968-1.63 4.238-4.121 7.87-7.473 10.896-3.352 3.027-7.602 5.39-12.746 7.089-5.146 1.7-11.234 2.549-18.264 2.549h-12.292v34.013h-23.606v-101.76h35.898zm0 49.937c6.146 0 10.569-1.467 13.27-4.4 2.7-2.934 4.051-7.03 4.051-12.292 0-2.328-.349-4.446-1.048-6.356-.698-1.909-1.758-3.55-3.178-4.924-1.421-1.373-3.212-2.433-5.378-3.178-2.165-.744-4.738-1.117-7.717-1.117h-12.292v32.267h12.292zM890.466 232.002v23.747h31.987v17.46h-31.987v24.235h41.765v18.159h-65.511v-101.76h65.511v18.159h-41.765zM1049.563 213.843v101.76h-12.292c-1.816 0-3.341-.291-4.575-.873-1.234-.582-2.457-1.594-3.667-3.038l-47.981-60.693c.186 1.816.314 3.574.384 5.273.07 1.7.105 3.295.105 4.784v54.547h-20.812v-101.76h12.432c1.023 0 1.886.047 2.584.14.698.094 1.327.269 1.885.524.559.256 1.093.618 1.606 1.083.512.466 1.093 1.094 1.746 1.886l48.4 61.112c-.233-1.956-.396-3.853-.489-5.692-.094-1.839-.14-3.573-.14-5.203v-53.848h20.814zM1175.556 264.688c0 7.358-1.269 14.144-3.806 20.359-2.538 6.216-6.111 11.594-10.72 16.134-4.61 4.54-10.162 8.079-16.657 10.616-6.496 2.539-13.701 3.807-21.616 3.807h-39.53v-101.76h39.53c7.915 0 15.121 1.281 21.616 3.841 6.495 2.561 12.047 6.1 16.657 10.616 4.609 4.516 8.182 9.882 10.72 16.098 2.537 6.216 3.806 12.98 3.806 20.289zm-24.164 0c0-5.028-.653-9.568-1.956-13.619-1.304-4.051-3.178-7.484-5.623-10.302-2.444-2.817-5.437-4.982-8.975-6.496-3.539-1.512-7.567-2.27-12.083-2.27h-15.784v65.442h15.784c4.516 0 8.543-.756 12.083-2.27 3.538-1.512 6.53-3.677 8.975-6.495 2.445-2.817 4.318-6.251 5.623-10.301 1.303-4.05 1.956-8.613 1.956-13.689zM1291.283 315.603h-18.298c-2.05 0-3.702-.477-4.959-1.432-1.258-.954-2.212-2.176-2.863-3.667l-6.007-17.74h-38.691l-6.007 17.74c-.513 1.304-1.432 2.479-2.759 3.527-1.326 1.047-2.968 1.571-4.924 1.571h-18.438l39.391-101.76h24.164l39.391 101.761zm-37.505-38.902l-9.428-27.867c-.698-1.769-1.443-3.853-2.234-6.251-.793-2.397-1.584-4.994-2.375-7.788-.698 2.841-1.443 5.472-2.235 7.892-.792 2.422-1.536 4.517-2.234 6.286l-9.359 27.728h27.865zM1350.927 276.911v38.692h-23.605v-38.692l-36.877-63.067h20.812c2.049 0 3.667.478 4.854 1.432 1.188.955 2.176 2.177 2.968 3.667l14.388 29.613c1.211 2.329 2.305 4.505 3.283 6.53.978 2.025 1.839 4.016 2.584 5.971.698-2.001 1.501-4.016 2.409-6.041.907-2.025 1.966-4.179 3.177-6.46l14.248-29.613c.325-.605.722-1.21 1.188-1.816.465-.605 1.013-1.153 1.641-1.642.629-.489 1.351-.884 2.165-1.187.814-.303 1.712-.454 2.689-.454h20.952l-36.876 63.067zM1498.571 213.843v101.76h-23.746v-43.022h-41.346v43.022h-23.746v-101.76h23.746v42.534h41.346v-42.534h23.746zM1621.072 213.843v101.76h-23.746v-43.022h-41.348v43.022h-23.744v-101.76h23.744v42.534h41.348v-42.534h23.746z"/></g><g fill="#F9F9F9"><path d="M247.984 411.708v41.9h-9.777v-17.715h-17.025v17.715h-9.778v-41.9h9.778v17.514h17.025v-17.514h9.777zM256.641 427.928c1.802-1.591 3.8-2.775 5.996-3.552 2.195-.776 4.548-1.165 7.06-1.165 1.802 0 3.427.293 4.875.878 1.447.585 2.675 1.399 3.681 2.444s1.778 2.286 2.315 3.724c.537 1.438.805 3.011.805 4.717v18.635h-4.083c-.844 0-1.481-.115-1.913-.345-.431-.23-.791-.709-1.078-1.438l-.633-1.639c-.748.632-1.467 1.188-2.157 1.668-.69.479-1.405.887-2.143 1.222-.738.336-1.524.585-2.358.748-.834.162-1.759.244-2.775.244-1.361 0-2.598-.178-3.709-.532-1.112-.354-2.056-.877-2.833-1.567-.776-.689-1.376-1.548-1.797-2.573-.422-1.025-.632-2.21-.632-3.552 0-1.073.268-2.161.805-3.265.536-1.101 1.466-2.107 2.79-3.019 1.323-.91 3.106-1.672 5.349-2.286 2.243-.613 5.071-.958 8.483-1.035v-1.266c0-1.744-.359-3.005-1.078-3.781-.719-.777-1.74-1.165-3.063-1.165-1.055 0-1.917.115-2.588.345-.671.23-1.27.489-1.797.776-.527.288-1.04.547-1.539.776-.499.23-1.093.346-1.783.346-.614 0-1.132-.153-1.553-.46-.422-.307-.767-.671-1.035-1.093l-1.612-2.79zm16.047 13.546c-1.783.076-3.25.229-4.4.46-1.15.229-2.061.517-2.732.861-.671.346-1.136.738-1.395 1.18-.259.44-.388.92-.388 1.438 0 1.017.278 1.73.834 2.143s1.371.618 2.444.618c1.15 0 2.157-.201 3.02-.604.863-.403 1.735-1.055 2.617-1.956v-4.14zM289.942 453.609v-29.822h5.521c1.111 0 1.84.499 2.186 1.496l.489 1.61c.499-.518 1.016-.992 1.553-1.424s1.117-.805 1.74-1.121c.623-.316 1.294-.565 2.013-.748.719-.182 1.51-.273 2.373-.273 1.802 0 3.292.465 4.472 1.396 1.179.93 2.075 2.171 2.689 3.724.499-.92 1.107-1.706 1.826-2.358.719-.651 1.496-1.179 2.33-1.581.834-.403 1.715-.7 2.646-.892.93-.191 1.855-.288 2.775-.288 1.706 0 3.221.255 4.544.763 1.323.508 2.43 1.246 3.321 2.214.892.969 1.567 2.157 2.028 3.566.46 1.409.69 3.005.69 4.788v18.951h-8.915v-18.951c0-3.087-1.323-4.63-3.969-4.63-1.208 0-2.21.398-3.005 1.193-.796.796-1.193 1.941-1.193 3.437v18.951h-8.915v-18.951c0-1.706-.336-2.904-1.007-3.595s-1.658-1.035-2.962-1.035c-.805 0-1.567.183-2.286.546-.719.365-1.395.854-2.028 1.467v21.568h-8.916zM350.679 426.951c1.15-1.093 2.411-1.97 3.782-2.632 1.371-.661 2.9-.992 4.587-.992 1.687 0 3.221.346 4.601 1.035 1.38.69 2.56 1.673 3.537 2.948.978 1.275 1.73 2.813 2.258 4.615.527 1.803.791 3.816.791 6.04 0 2.415-.307 4.61-.92 6.585-.614 1.975-1.481 3.666-2.603 5.075s-2.459 2.502-4.012 3.279c-1.553.776-3.269 1.164-5.147 1.164-.901 0-1.707-.086-2.416-.259s-1.361-.417-1.956-.733-1.136-.694-1.625-1.136c-.489-.44-.963-.92-1.424-1.438l-.316 1.495c-.153.613-.402 1.035-.748 1.266-.345.229-.805.345-1.38.345h-5.924v-43.051h8.915v16.394zm0 18.548c.671.729 1.399 1.247 2.186 1.554.786.307 1.582.46 2.387.46.843 0 1.62-.158 2.33-.475.709-.316 1.318-.834 1.826-1.553.508-.72.906-1.668 1.193-2.848.288-1.178.431-2.63.431-4.355 0-1.496-.11-2.766-.331-3.811-.221-1.045-.546-1.898-.978-2.56-.432-.662-.969-1.141-1.611-1.438-.643-.297-1.376-.445-2.2-.445-1.093 0-2.042.24-2.847.719-.805.479-1.601 1.179-2.387 2.1v12.652zM404.428 423.787v29.822h-5.522c-1.112 0-1.84-.498-2.186-1.495l-.518-1.726c-.575.556-1.169 1.06-1.783 1.51s-1.27.834-1.97 1.15c-.7.316-1.457.565-2.271.747-.815.183-1.702.273-2.66.273-1.63 0-3.073-.283-4.328-.849-1.256-.564-2.315-1.355-3.178-2.372-.863-1.016-1.515-2.215-1.956-3.595-.441-1.381-.662-2.895-.662-4.544v-18.923h8.915v18.923c0 1.477.335 2.617 1.007 3.422.671.806 1.658 1.208 2.962 1.208.978 0 1.893-.206 2.746-.618.853-.412 1.682-.973 2.488-1.683v-21.252h8.916zM421.682 428.388c.92-1.61 1.979-2.876 3.178-3.796 1.198-.92 2.574-1.381 4.126-1.381 1.342 0 2.435.316 3.279.949l-.575 6.558c-.096.422-.254.709-.475.862-.221.153-.522.23-.906.23-.154 0-.355-.01-.604-.029l-.776-.071-.82-.087c-.278-.028-.532-.043-.762-.043-1.304 0-2.344.345-3.12 1.035s-1.434 1.649-1.97 2.876v18.117h-8.915v-29.822h5.292c.441 0 .81.039 1.107.115.297.077.546.197.748.359.201.163.354.379.46.647.105.269.196.595.273.978l.46 2.503zM465.221 424.708v3.25c0 .498-.14.891-.417 1.179-.278.287-.753.508-1.424.661l-2.157.489c.115.422.206.854.273 1.294.067.441.101.901.101 1.381 0 1.495-.312 2.837-.935 4.025-.623 1.189-1.477 2.2-2.559 3.034-1.083.834-2.363 1.477-3.839 1.927-1.477.45-3.059.675-4.745.675-.46 0-.911-.014-1.352-.043-.441-.028-.873-.081-1.294-.158-.652.403-.978.854-.978 1.352 0 .499.268.858.805 1.079.537.221 1.246.374 2.128.46s1.884.144 3.005.173c1.122.028 2.267.096 3.437.201s2.315.283 3.437.532 2.124.651 3.005 1.207c.882.557 1.591 1.3 2.128 2.229.536.93.805 2.113.805 3.552 0 1.342-.326 2.655-.978 3.939s-1.61 2.426-2.876 3.423c-1.265.996-2.818 1.797-4.659 2.401-1.84.604-3.95.905-6.327.905-2.339 0-4.357-.221-6.054-.661-1.697-.441-3.106-1.021-4.227-1.74-1.122-.719-1.951-1.548-2.488-2.487s-.805-1.917-.805-2.934c0-1.322.383-2.426 1.15-3.307.767-.882 1.84-1.592 3.22-2.129-.728-.44-1.303-1.006-1.725-1.696-.422-.69-.633-1.582-.633-2.675 0-.44.076-.906.23-1.395.153-.489.398-.968.733-1.438.335-.47.752-.915 1.25-1.336.499-.422 1.093-.795 1.783-1.122-1.553-.823-2.78-1.912-3.681-3.264-.901-1.352-1.352-2.929-1.352-4.73 0-1.496.316-2.843.949-4.041s1.5-2.215 2.602-3.049c1.103-.834 2.401-1.476 3.897-1.927 1.496-.45 3.115-.676 4.86-.676 2.531 0 4.774.479 6.729 1.438h8.978zm-8.8 29.994c0-.71-.316-1.223-.949-1.538-.632-.316-1.457-.542-2.473-.677-1.016-.134-2.152-.215-3.408-.244-1.256-.028-2.507-.101-3.753-.216-.556.384-1.012.811-1.366 1.28-.355.47-.532 1.001-.532 1.596 0 .422.09.806.273 1.15.182.346.503.643.963.892.46.249 1.079.446 1.855.59s1.759.216 2.948.216c1.284 0 2.339-.077 3.164-.23.824-.153 1.481-.364 1.97-.633s.829-.59 1.021-.963c.191-.375.287-.783.287-1.223zm-6.902-17.571c1.476 0 2.545-.369 3.207-1.107.661-.738.992-1.691.992-2.861 0-1.208-.331-2.157-.992-2.848-.662-.689-1.73-1.035-3.207-1.035-1.477 0-2.545.346-3.207 1.035-.662.69-.992 1.64-.992 2.848 0 .575.081 1.103.244 1.581.163.479.417.896.762 1.252.345.354.781.632 1.309.834.527.201 1.155.301 1.884.301zM471.893 460.712c-.422-.345-.633-.768-.633-1.266 0-.191.067-.398.202-.618.134-.221.297-.417.489-.59.23-.229.498-.513.805-.848.307-.336.613-.705.92-1.107.306-.403.589-.844.848-1.323s.455-.987.59-1.524c-.652-.058-1.247-.22-1.783-.488-.537-.269-.997-.618-1.38-1.05-.384-.432-.681-.93-.892-1.496-.211-.564-.316-1.184-.316-1.854 0-.613.115-1.184.345-1.711s.561-.987.992-1.381c.431-.393.939-.704 1.524-.935.585-.229 1.241-.345 1.97-.345.863 0 1.61.148 2.243.445.633.298 1.16.7 1.582 1.208.421.508.733 1.093.935 1.754.202.662.302 1.357.302 2.085 0 .959-.154 1.98-.46 3.063s-.762 2.171-1.366 3.264-1.356 2.167-2.258 3.222c-.901 1.054-1.937 2.013-3.106 2.875l-1.553-1.38zM525.842 431.897h14.896v17.686c-2.147 1.572-4.434 2.713-6.859 3.423-2.425.709-4.96 1.063-7.606 1.063-3.451 0-6.59-.541-9.418-1.625-2.828-1.083-5.249-2.578-7.261-4.486-2.013-1.907-3.566-4.17-4.659-6.786-1.093-2.617-1.639-5.459-1.639-8.526 0-3.125.518-5.996 1.553-8.613 1.035-2.617 2.516-4.875 4.443-6.773 1.927-1.897 4.256-3.374 6.988-4.429 2.732-1.054 5.785-1.581 9.16-1.581 1.745 0 3.384.144 4.918.431 1.533.288 2.948.682 4.242 1.18 1.294.499 2.478 1.093 3.551 1.783 1.073.689 2.032 1.438 2.875 2.243l-2.818 4.285c-.441.671-1.011 1.083-1.711 1.236-.7.153-1.452-.019-2.257-.518-.767-.46-1.491-.858-2.171-1.193-.681-.336-1.376-.608-2.085-.82-.709-.21-1.458-.363-2.243-.46-.787-.096-1.668-.144-2.646-.144-1.821 0-3.461.321-4.917.963-1.458.643-2.699 1.549-3.724 2.718-1.026 1.17-1.817 2.574-2.373 4.214-.557 1.639-.834 3.465-.834 5.479 0 2.224.306 4.198.92 5.924s1.481 3.183 2.603 4.37c1.122 1.189 2.463 2.096 4.026 2.718 1.562.624 3.293.935 5.191.935 1.169 0 2.229-.114 3.178-.345.949-.23 1.874-.536 2.775-.92v-6.355h-4.141c-.614 0-1.093-.162-1.438-.488s-.518-.738-.518-1.236v-5.353zM556.095 440.294c.288 2.492 1.045 4.299 2.272 5.42 1.227 1.122 2.809 1.683 4.745 1.683 1.035 0 1.927-.124 2.674-.374.748-.249 1.414-.527 1.999-.834.584-.307 1.122-.584 1.61-.834.489-.249 1.001-.374 1.539-.374.709 0 1.246.259 1.61.776l2.588 3.192c-.92 1.055-1.913 1.913-2.977 2.574s-2.157 1.179-3.278 1.553-2.243.633-3.365.776c-1.122.145-2.19.216-3.207.216-2.09 0-4.05-.341-5.881-1.021-1.831-.681-3.432-1.692-4.802-3.034-1.371-1.342-2.455-3.01-3.25-5.004-.796-1.994-1.193-4.313-1.193-6.959 0-1.994.34-3.883 1.021-5.665.68-1.783 1.658-3.346 2.933-4.688 1.275-1.342 2.818-2.405 4.63-3.191 1.812-.786 3.858-1.18 6.14-1.18 1.975 0 3.782.308 5.421.921 1.64.613 3.049 1.505 4.228 2.674 1.179 1.17 2.1 2.603 2.761 4.3.661 1.696.992 3.619.992 5.766 0 .672-.028 1.218-.086 1.64s-.163.758-.316 1.007c-.154.249-.359.422-.618.518s-.59.144-.992.144h-17.198zm11.216-5.176c0-.709-.091-1.399-.273-2.07s-.479-1.27-.891-1.798c-.413-.526-.954-.953-1.625-1.279-.671-.326-1.486-.489-2.444-.489-1.688 0-3.01.484-3.969 1.452-.959.969-1.592 2.363-1.898 4.185h11.1zM590.978 428.388c.92-1.61 1.979-2.876 3.178-3.796 1.198-.92 2.574-1.381 4.126-1.381 1.342 0 2.435.316 3.279.949l-.575 6.558c-.096.422-.254.709-.475.862-.221.153-.522.23-.906.23-.154 0-.355-.01-.604-.029l-.776-.071-.82-.087c-.278-.028-.532-.043-.762-.043-1.304 0-2.344.345-3.12 1.035s-1.434 1.649-1.97 2.876v18.117h-8.915v-29.822h5.291c.441 0 .81.039 1.107.115.297.077.546.197.748.359.201.163.354.379.46.647.105.269.196.595.273.978l.461 2.503zM607.455 453.609v-29.822h5.522c1.111 0 1.84.499 2.186 1.496l.489 1.61c.499-.518 1.016-.992 1.553-1.424s1.117-.805 1.74-1.121c.623-.316 1.294-.565 2.013-.748.719-.182 1.51-.273 2.373-.273 1.802 0 3.292.465 4.472 1.396 1.179.93 2.075 2.171 2.689 3.724.499-.92 1.107-1.706 1.826-2.358.719-.651 1.496-1.179 2.33-1.581.833-.403 1.715-.7 2.645-.892.93-.191 1.855-.288 2.775-.288 1.706 0 3.221.255 4.544.763 1.323.508 2.43 1.246 3.321 2.214.892.969 1.567 2.157 2.028 3.566.46 1.409.69 3.005.69 4.788v18.951h-8.915v-18.951c0-3.087-1.323-4.63-3.969-4.63-1.208 0-2.21.398-3.005 1.193-.796.796-1.193 1.941-1.193 3.437v18.951h-8.915v-18.951c0-1.706-.336-2.904-1.007-3.595s-1.658-1.035-2.962-1.035c-.805 0-1.567.183-2.286.546-.719.365-1.395.854-2.028 1.467v21.568h-8.916zM658.617 427.928c1.802-1.591 3.8-2.775 5.996-3.552 2.195-.776 4.548-1.165 7.06-1.165 1.802 0 3.427.293 4.875.878 1.447.585 2.675 1.399 3.681 2.444s1.778 2.286 2.315 3.724c.537 1.438.805 3.011.805 4.717v18.635h-4.083c-.844 0-1.481-.115-1.913-.345-.431-.23-.791-.709-1.078-1.438l-.633-1.639c-.748.632-1.467 1.188-2.157 1.668-.69.479-1.405.887-2.143 1.222-.738.336-1.524.585-2.358.748-.834.162-1.759.244-2.775.244-1.361 0-2.598-.178-3.709-.532-1.112-.354-2.056-.877-2.833-1.567-.776-.689-1.376-1.548-1.797-2.573-.422-1.025-.632-2.21-.632-3.552 0-1.073.268-2.161.805-3.265.536-1.101 1.466-2.107 2.79-3.019 1.323-.91 3.106-1.672 5.349-2.286 2.243-.613 5.071-.958 8.483-1.035v-1.266c0-1.744-.359-3.005-1.078-3.781-.719-.777-1.74-1.165-3.063-1.165-1.055 0-1.917.115-2.588.345-.671.23-1.27.489-1.797.776-.527.288-1.04.547-1.539.776-.499.23-1.093.346-1.783.346-.614 0-1.132-.153-1.553-.46-.422-.307-.767-.671-1.035-1.093l-1.612-2.79zm16.047 13.546c-1.783.076-3.25.229-4.4.46-1.15.229-2.061.517-2.732.861-.671.346-1.136.738-1.395 1.18-.259.44-.388.92-.388 1.438 0 1.017.278 1.73.834 2.143s1.371.618 2.444.618c1.15 0 2.157-.201 3.02-.604.863-.403 1.735-1.055 2.617-1.956v-4.14zM700.142 427.008c.575-.537 1.169-1.035 1.783-1.496.614-.46 1.27-.848 1.97-1.164.7-.316 1.457-.565 2.272-.748.814-.182 1.701-.273 2.66-.273 1.629 0 3.072.283 4.328.849 1.255.565 2.315 1.352 3.178 2.358s1.514 2.205 1.956 3.595c.441 1.391.662 2.9.662 4.529v18.951h-8.915v-18.951c0-1.457-.336-2.593-1.007-3.408-.671-.814-1.659-1.222-2.962-1.222-.978 0-1.894.206-2.747.618-.854.412-1.682.974-2.488 1.683v21.28h-8.915v-29.822h5.522c1.111 0 1.84.499 2.186 1.496l.517 1.725zM755.013 423.787l-15.932 37.559c-.269.594-.595 1.03-.978 1.309-.383.277-.997.417-1.84.417h-6.671l5.751-12.079-11.905-27.205h7.88c.69 0 1.222.154 1.595.461.374.307.647.671.82 1.093l4.889 12.854c.46 1.17.834 2.368 1.122 3.595l.632-1.84s.432-1.218.662-1.812l4.429-12.797c.173-.441.479-.811.92-1.107.441-.297.92-.446 1.438-.446h7.188zM782.131 453.264c-.211.518-.484.978-.82 1.38-.335.402-.709.738-1.121 1.007-.413.269-.854.47-1.323.604-.47.134-.935.201-1.395.201h-3.796l16.334-42.878c.383-.978.968-1.726 1.754-2.243s1.697-.776 2.732-.776h3.796l-16.161 42.705zM798.667 453.264c-.211.518-.484.978-.82 1.38s-.709.738-1.122 1.007c-.413.269-.854.47-1.323.604-.47.134-.935.201-1.395.201h-3.796l16.334-42.878c.383-.978.968-1.726 1.754-2.243s1.697-.776 2.732-.776h3.796l-16.16 42.705zM862.538 420.221c-.288.46-.59.805-.906 1.035-.316.23-.724.345-1.223.345-.441 0-.916-.139-1.423-.417l-1.726-.935c-.643-.345-1.376-.656-2.2-.935-.825-.277-1.764-.417-2.818-.417-1.822 0-3.178.389-4.069 1.165-.892.776-1.337 1.826-1.337 3.148 0 .845.268 1.544.805 2.1.537.557 1.241 1.035 2.114 1.438.872.402 1.869.771 2.991 1.106 1.122.336 2.267.71 3.437 1.122 1.169.412 2.315.896 3.437 1.452 1.122.557 2.118 1.266 2.991 2.128.872.863 1.577 1.913 2.114 3.149.537 1.236.805 2.728.805 4.472 0 1.938-.335 3.748-1.006 5.435-.671 1.688-1.644 3.159-2.919 4.415-1.275 1.256-2.847 2.243-4.716 2.962-1.87.719-3.993 1.078-6.37 1.078-1.304 0-2.631-.134-3.983-.402-1.352-.269-2.66-.647-3.926-1.136-1.265-.489-2.454-1.069-3.566-1.74-1.112-.671-2.081-1.419-2.905-2.243l2.876-4.544c.23-.326.532-.599.906-.819s.781-.331 1.222-.331c.575 0 1.155.183 1.74.547.584.364 1.246.767 1.984 1.207.738.441 1.586.845 2.545 1.208.958.365 2.089.547 3.394.547 1.764 0 3.135-.389 4.112-1.165.978-.776 1.467-2.008 1.467-3.694 0-.978-.269-1.773-.805-2.387-.537-.613-1.242-1.122-2.114-1.524-.873-.402-1.865-.757-2.977-1.064-1.112-.307-2.253-.646-3.422-1.021s-2.311-.834-3.422-1.381c-1.112-.546-2.104-1.265-2.977-2.156s-1.577-2.004-2.113-3.336c-.537-1.333-.806-2.977-.806-4.933 0-1.571.316-3.105.949-4.602.633-1.495 1.562-2.827 2.79-3.997 1.227-1.169 2.732-2.104 4.515-2.804 1.783-.7 3.825-1.05 6.125-1.05 1.284 0 2.535.101 3.753.302 1.217.201 2.373.499 3.465.892s2.114.862 3.063 1.409c.949.546 1.797 1.164 2.545 1.854l-2.416 4.517zM872.057 427.928c1.802-1.591 3.8-2.775 5.996-3.552 2.194-.776 4.548-1.165 7.06-1.165 1.802 0 3.427.293 4.875.878 1.447.585 2.675 1.399 3.681 2.444s1.778 2.286 2.315 3.724c.537 1.438.805 3.011.805 4.717v18.635h-4.083c-.844 0-1.481-.115-1.913-.345-.431-.23-.791-.709-1.078-1.438l-.633-1.639c-.748.632-1.467 1.188-2.157 1.668-.69.479-1.405.887-2.143 1.222-.738.336-1.524.585-2.358.748-.834.162-1.759.244-2.775.244-1.361 0-2.598-.178-3.709-.532-1.112-.354-2.056-.877-2.833-1.567-.776-.689-1.376-1.548-1.797-2.573-.422-1.025-.632-2.21-.632-3.552 0-1.073.268-2.161.805-3.265.536-1.101 1.466-2.107 2.79-3.019 1.323-.91 3.106-1.672 5.349-2.286 2.243-.613 5.071-.958 8.483-1.035v-1.266c0-1.744-.359-3.005-1.078-3.781-.719-.777-1.74-1.165-3.063-1.165-1.055 0-1.917.115-2.588.345-.671.23-1.27.489-1.797.776-.527.288-1.04.547-1.538.776-.499.23-1.093.346-1.783.346-.614 0-1.132-.153-1.553-.46-.422-.307-.767-.671-1.035-1.093l-1.613-2.79zm16.046 13.546c-1.783.076-3.25.229-4.4.46-1.15.229-2.061.517-2.732.861-.671.346-1.136.738-1.395 1.18-.259.44-.388.92-.388 1.438 0 1.017.278 1.73.834 2.143s1.371.618 2.444.618c1.15 0 2.157-.201 3.02-.604.863-.403 1.735-1.055 2.617-1.956v-4.14zM915.567 454.069c-1.419 0-2.67-.206-3.753-.618-1.083-.412-1.994-.997-2.732-1.754-.738-.758-1.299-1.673-1.683-2.747-.384-1.073-.575-2.271-.575-3.595v-15.414h-2.531c-.46 0-.853-.147-1.179-.445-.327-.297-.489-.733-.489-1.309v-3.479l4.745-.921 1.754-7.275c.23-.921.882-1.381 1.956-1.381h4.659v8.714h7.391v6.097h-7.391v14.811c0 .689.167 1.261.503 1.711s.82.676 1.453.676c.326 0 .599-.033.819-.101.22-.067.412-.144.575-.23l.46-.229c.144-.067.312-.101.503-.101.269 0 .484.062.647.187.163.125.331.321.503.59l2.703 4.228c-1.15.862-2.444 1.51-3.882 1.941-1.436.428-2.922.644-4.456.644zM928.652 449.094c0-.69.129-1.333.388-1.928.259-.594.613-1.111 1.064-1.553.45-.44.982-.791 1.596-1.05.613-.259 1.284-.388 2.013-.388.709 0 1.371.129 1.984.388s1.15.609 1.611 1.05c.46.441.819.959 1.078 1.553.259.595.388 1.237.388 1.928 0 .689-.129 1.337-.388 1.94-.259.604-.618 1.127-1.078 1.567-.46.441-.997.787-1.611 1.035-.614.249-1.275.374-1.984.374-.729 0-1.399-.125-2.013-.374-.614-.248-1.146-.594-1.596-1.035-.451-.44-.805-.963-1.064-1.567-.259-.603-.388-1.25-.388-1.94zM986.829 420.221c-.288.46-.59.805-.906 1.035-.316.23-.724.345-1.223.345-.441 0-.916-.139-1.423-.417l-1.726-.935c-.643-.345-1.376-.656-2.2-.935-.825-.277-1.764-.417-2.818-.417-1.821 0-3.178.389-4.069 1.165-.892.776-1.337 1.826-1.337 3.148 0 .845.268 1.544.805 2.1.537.557 1.241 1.035 2.114 1.438.872.402 1.869.771 2.99 1.106 1.122.336 2.267.71 3.437 1.122 1.169.412 2.315.896 3.437 1.452 1.122.557 2.118 1.266 2.991 2.128.872.863 1.577 1.913 2.114 3.149.537 1.236.805 2.728.805 4.472 0 1.938-.335 3.748-1.006 5.435-.671 1.688-1.644 3.159-2.919 4.415-1.275 1.256-2.847 2.243-4.716 2.962-1.87.719-3.993 1.078-6.37 1.078-1.304 0-2.631-.134-3.983-.402-1.352-.269-2.66-.647-3.926-1.136-1.265-.489-2.454-1.069-3.566-1.74-1.112-.671-2.081-1.419-2.905-2.243l2.876-4.544c.23-.326.532-.599.906-.819s.781-.331 1.222-.331c.575 0 1.155.183 1.74.547.584.364 1.246.767 1.984 1.207.738.441 1.586.845 2.545 1.208.958.365 2.089.547 3.394.547 1.763 0 3.134-.389 4.112-1.165.978-.776 1.467-2.008 1.467-3.694 0-.978-.269-1.773-.805-2.387-.537-.613-1.242-1.122-2.114-1.524-.873-.402-1.864-.757-2.976-1.064-1.112-.307-2.253-.646-3.422-1.021s-2.311-.834-3.422-1.381c-1.112-.546-2.104-1.265-2.977-2.156s-1.577-2.004-2.113-3.336c-.537-1.333-.806-2.977-.806-4.933 0-1.571.316-3.105.949-4.602.633-1.495 1.562-2.827 2.79-3.997 1.227-1.169 2.732-2.104 4.515-2.804 1.783-.7 3.825-1.05 6.125-1.05 1.284 0 2.535.101 3.753.302 1.217.201 2.373.499 3.465.892s2.114.862 3.063 1.409c.949.546 1.797 1.164 2.545 1.854l-2.416 4.517zM1004.716 440.294c.288 2.492 1.045 4.299 2.272 5.42 1.227 1.122 2.809 1.683 4.745 1.683 1.035 0 1.927-.124 2.674-.374.748-.249 1.414-.527 1.999-.834.584-.307 1.122-.584 1.61-.834.489-.249 1.001-.374 1.539-.374.709 0 1.246.259 1.61.776l2.588 3.192c-.92 1.055-1.913 1.913-2.977 2.574s-2.157 1.179-3.278 1.553-2.243.633-3.365.776c-1.122.145-2.19.216-3.207.216-2.09 0-4.05-.341-5.881-1.021-1.831-.681-3.432-1.692-4.802-3.034-1.371-1.342-2.455-3.01-3.25-5.004-.796-1.994-1.193-4.313-1.193-6.959 0-1.994.34-3.883 1.021-5.665.68-1.783 1.658-3.346 2.933-4.688 1.275-1.342 2.818-2.405 4.63-3.191 1.812-.786 3.858-1.18 6.14-1.18 1.975 0 3.782.308 5.421.921 1.64.613 3.049 1.505 4.228 2.674 1.179 1.17 2.1 2.603 2.761 4.3.661 1.696.992 3.619.992 5.766 0 .672-.028 1.218-.086 1.64s-.163.758-.316 1.007c-.154.249-.359.422-.618.518s-.59.144-.992.144h-17.198zm11.216-5.176c0-.709-.091-1.399-.273-2.07s-.479-1.27-.891-1.798c-.413-.526-.954-.953-1.625-1.279-.671-.326-1.486-.489-2.444-.489-1.688 0-3.01.484-3.969 1.452-.959.969-1.592 2.363-1.898 4.185h11.1zM1039.627 427.468c1.169-1.246 2.497-2.268 3.983-3.062 1.485-.796 3.254-1.194 5.306-1.194 1.553 0 2.991.346 4.314 1.036 1.323.689 2.463 1.687 3.422 2.99.958 1.305 1.711 2.9 2.257 4.789s.82 4.03.82 6.427c0 2.243-.312 4.313-.935 6.211-.623 1.898-1.495 3.548-2.617 4.947s-2.464 2.492-4.026 3.278c-1.563.786-3.293 1.179-5.191 1.179-1.553 0-2.857-.221-3.911-.661-1.055-.441-2.013-1.035-2.876-1.783v11.446h-8.915v-39.284h5.522c1.111 0 1.84.499 2.186 1.496l.661 2.185zm.547 18.031c.671.729 1.399 1.247 2.186 1.554.786.307 1.61.46 2.473.46.824 0 1.582-.163 2.272-.489.69-.325 1.289-.849 1.797-1.567.508-.719.906-1.653 1.193-2.804.288-1.149.431-2.549.431-4.198 0-1.571-.115-2.895-.345-3.969-.23-1.073-.551-1.94-.963-2.603-.413-.661-.906-1.136-1.481-1.423-.575-.288-1.218-.432-1.927-.432-1.304 0-2.377.24-3.221.719-.844.479-1.649 1.179-2.416 2.1v12.652zM1077.445 454.069c-1.419 0-2.67-.206-3.752-.618-1.083-.412-1.994-.997-2.732-1.754-.738-.758-1.299-1.673-1.683-2.747-.384-1.073-.575-2.271-.575-3.595v-15.414h-2.531c-.46 0-.853-.147-1.179-.445-.327-.297-.489-.733-.489-1.309v-3.479l4.745-.921 1.754-7.275c.23-.921.882-1.381 1.956-1.381h4.659v8.714h7.391v6.097h-7.391v14.811c0 .689.167 1.261.503 1.711s.82.676 1.453.676c.326 0 .599-.033.819-.101.22-.067.412-.144.575-.23l.46-.229c.144-.067.312-.101.503-.101.269 0 .484.062.647.187.163.125.331.321.503.59l2.703 4.228c-1.15.862-2.444 1.51-3.882 1.941-1.438.428-2.923.644-4.457.644zM1090.529 449.094c0-.69.129-1.333.388-1.928.259-.594.613-1.111 1.064-1.553.45-.44.982-.791 1.596-1.05.613-.259 1.284-.388 2.013-.388.709 0 1.371.129 1.984.388s1.15.609 1.611 1.05c.46.441.819.959 1.078 1.553.259.595.388 1.237.388 1.928 0 .689-.129 1.337-.388 1.94-.259.604-.618 1.127-1.078 1.567-.46.441-.997.787-1.611 1.035-.614.249-1.275.374-1.984.374-.729 0-1.399-.125-2.013-.374-.614-.248-1.146-.594-1.596-1.035-.451-.44-.805-.963-1.064-1.567-.258-.603-.388-1.25-.388-1.94zM1151.726 447.167v6.442h-23.87v-6.442h8.053v-21.137c0-.536.009-1.078.028-1.624.019-.547.048-1.098.086-1.654l-4.774 3.969c-.422.326-.839.522-1.251.59-.413.067-.801.067-1.165 0-.365-.067-.69-.191-.978-.374-.288-.182-.499-.369-.632-.561l-2.818-3.739 13.056-10.957h7.362v35.487h6.903zM1172.919 427.813c1.342-.498 2.837-.747 4.486-.747 1.514 0 3.01.249 4.486.747 1.476.499 2.799 1.266 3.969 2.301 1.169 1.035 2.114 2.344 2.833 3.926s1.079 3.446 1.079 5.594c0 1.955-.365 3.81-1.093 5.563-.729 1.755-1.759 3.288-3.092 4.602s-2.938 2.354-4.817 3.12c-1.879.767-3.959 1.15-6.241 1.15-2.339 0-4.438-.369-6.297-1.107-1.86-.737-3.437-1.769-4.731-3.091-1.294-1.323-2.282-2.905-2.962-4.745-.681-1.841-1.021-3.862-1.021-6.067 0-4.122 1.591-8.312 4.774-12.567l9.432-12.74c.441-.556 1.079-1.035 1.913-1.438.834-.402 1.787-.604 2.861-.604h7.938l-12.424 14.84-1.093 1.263zm1.438 19.21c.92 0 1.778-.173 2.574-.518.795-.345 1.481-.819 2.056-1.424.575-.604 1.03-1.312 1.366-2.128.335-.814.503-1.7.503-2.659 0-1.073-.158-2.032-.474-2.876-.316-.843-.762-1.553-1.337-2.128s-1.271-1.016-2.085-1.323c-.815-.306-1.721-.46-2.718-.46-.901 0-1.726.158-2.473.475-.747.316-1.395.772-1.941 1.366-.546.595-.973 1.304-1.28 2.128s-.46 1.755-.46 2.79.125 1.964.374 2.788c.249.825.632 1.534 1.15 2.128.518.595 1.169 1.05 1.955 1.366.787.317 1.716.475 2.79.475zM1197.046 460.712c-.422-.345-.633-.768-.633-1.266 0-.191.068-.398.201-.618.135-.221.297-.417.49-.59.229-.229.498-.513.805-.848.307-.336.613-.705.92-1.107.307-.403.59-.844.85-1.323.258-.479.455-.987.588-1.524-.65-.058-1.246-.22-1.783-.488-.535-.269-.996-.618-1.379-1.05-.385-.432-.682-.93-.893-1.496-.211-.564-.316-1.184-.316-1.854 0-.613.115-1.184.346-1.711s.561-.987.992-1.381c.432-.393.939-.704 1.523-.935.586-.229 1.242-.345 1.971-.345.863 0 1.611.148 2.242.445.633.298 1.16.7 1.582 1.208s.734 1.093.936 1.754c.201.662.301 1.357.301 2.085 0 .959-.152 1.98-.459 3.063s-.762 2.171-1.367 3.264c-.604 1.093-1.355 2.167-2.256 3.222-.902 1.054-1.938 2.013-3.107 2.875l-1.554-1.38zM1248.138 445.556c.958 0 1.716.264 2.271.791.557.527.834 1.223.834 2.085v5.177h-29.447v-2.876c0-.556.115-1.15.345-1.783.23-.633.633-1.208 1.208-1.726l12.079-12.164c1.035-1.035 1.936-2.022 2.703-2.962.767-.939 1.399-1.864 1.897-2.775.499-.91.873-1.821 1.122-2.731.249-.911.374-1.874.374-2.891 0-1.668-.398-2.947-1.193-3.839-.796-.892-2.009-1.338-3.639-1.338-1.322 0-2.439.351-3.35 1.05-.911.7-1.539 1.567-1.884 2.603-.403 1.055-.931 1.755-1.582 2.1-.652.345-1.582.422-2.79.23l-4.716-.834c.307-2.09.896-3.911 1.769-5.465.872-1.553 1.955-2.847 3.25-3.882 1.294-1.035 2.774-1.808 4.443-2.315 1.668-.508 3.46-.762 5.377-.762 2.071 0 3.936.302 5.594.905 1.658.604 3.071 1.443 4.241 2.517 1.169 1.074 2.065 2.354 2.688 3.84.623 1.485.935 3.12.935 4.903 0 1.534-.215 2.952-.646 4.256s-1.021 2.545-1.769 3.725c-.748 1.179-1.615 2.319-2.603 3.422-.988 1.103-2.037 2.22-3.148 3.351l-8.196 8.396c1.055-.326 2.1-.575 3.135-.748 1.035-.172 1.994-.259 2.876-.259h7.822zM1288.515 432.645c0 3.662-.394 6.835-1.18 9.518-.786 2.685-1.874 4.908-3.264 6.672-1.391 1.765-3.039 3.078-4.946 3.94-1.908.862-3.974 1.294-6.198 1.294s-4.28-.432-6.168-1.294c-1.889-.862-3.523-2.176-4.903-3.94-1.381-1.764-2.459-3.987-3.235-6.672-.776-2.683-1.165-5.855-1.165-9.518s.389-6.835 1.165-9.52c.776-2.684 1.854-4.908 3.235-6.672 1.38-1.764 3.015-3.072 4.903-3.926 1.888-.853 3.944-1.279 6.168-1.279 2.225 0 4.29.427 6.198 1.279 1.907.854 3.556 2.162 4.946 3.926 1.39 1.764 2.478 3.988 3.264 6.672.787 2.685 1.18 5.858 1.18 9.52zm-9.203 0c0-2.896-.183-5.268-.547-7.118-.364-1.85-.848-3.302-1.452-4.356-.604-1.055-1.289-1.778-2.056-2.172-.768-.393-1.544-.59-2.33-.59s-1.558.197-2.314.59c-.758.394-1.429 1.117-2.014 2.172s-1.055 2.507-1.409 4.356c-.354 1.851-.531 4.223-.531 7.118 0 2.914.177 5.291.531 7.132s.824 3.292 1.409 4.356c.585 1.063 1.256 1.793 2.014 2.186.757.393 1.528.589 2.314.589s1.562-.196 2.33-.589c.767-.393 1.452-1.122 2.056-2.186.604-1.064 1.088-2.516 1.452-4.356s.547-4.218.547-7.132zM1322.766 447.167v6.442h-23.87v-6.442h8.053v-21.137c0-.536.009-1.078.028-1.624.02-.547.048-1.098.087-1.654l-4.774 3.969c-.422.326-.839.522-1.251.59s-.801.067-1.165 0-.689-.191-.978-.374c-.287-.182-.499-.369-.633-.561l-2.818-3.739 13.057-10.957h7.362v35.487h6.902zM1360.496 411.708v3.738c0 1.112-.125 2.009-.374 2.689s-.489 1.251-.719 1.711l-14.552 30.828c-.402.806-.974 1.496-1.711 2.071-.738.575-1.721.862-2.947.862h-6.499l14.953-29.994c.44-.806.887-1.539 1.337-2.2s.954-1.289 1.51-1.884h-18.433c-.269 0-.522-.053-.763-.158-.239-.105-.45-.249-.632-.432-.183-.182-.331-.393-.446-.633-.115-.239-.173-.483-.173-.733v-5.866h29.449zM248.99 543.607h-7.534c-.844 0-1.524-.195-2.042-.59-.518-.393-.911-.895-1.179-1.51l-2.473-7.303h-15.932l-2.473 7.303c-.211.537-.589 1.021-1.136 1.453s-1.222.646-2.027.646h-7.592l16.22-41.9h9.95l16.218 41.901zm-15.443-16.017l-3.882-11.475c-.288-.729-.594-1.586-.92-2.574-.326-.986-.652-2.055-.978-3.205-.288 1.168-.594 2.252-.92 3.248-.326.998-.632 1.861-.92 2.59l-3.854 11.416h11.474zM295.348 500.557v43.05h-5.521c-1.112 0-1.841-.498-2.186-1.494l-.69-2.273c-.595.633-1.218 1.209-1.87 1.727s-1.356.963-2.113 1.338c-.758.373-1.573.66-2.445.861-.873.201-1.816.303-2.833.303-1.553 0-2.991-.346-4.314-1.035-1.323-.691-2.464-1.688-3.422-2.992-.958-1.303-1.711-2.898-2.257-4.787-.546-1.887-.82-4.041-.82-6.455 0-2.225.307-4.291.92-6.197.613-1.908 1.481-3.557 2.603-4.947s2.468-2.479 4.041-3.264c1.572-.787 3.308-1.18 5.206-1.18 1.553 0 2.856.221 3.911.662 1.054.441 2.013 1.035 2.876 1.783v-15.099h8.914zm-8.915 21.224c-.671-.748-1.4-1.27-2.186-1.568-.786-.297-1.61-.445-2.473-.445-.824 0-1.582.164-2.272.488-.69.326-1.29.85-1.797 1.568-.508.719-.906 1.654-1.193 2.805s-.431 2.539-.431 4.17c0 1.572.115 2.895.345 3.969.23 1.072.551 1.941.963 2.602.412.662.906 1.137 1.481 1.424s1.217.432 1.927.432c.651 0 1.241-.062 1.769-.188.527-.125 1.011-.301 1.452-.531s.858-.523 1.251-.877c.393-.355.781-.762 1.165-1.223v-12.626zM303.601 517.928c1.802-1.592 3.8-2.775 5.996-3.553 2.195-.775 4.548-1.164 7.06-1.164 1.802 0 3.427.293 4.875.877 1.447.586 2.675 1.4 3.681 2.445s1.778 2.285 2.315 3.723c.537 1.439.805 3.012.805 4.717v18.635h-4.083c-.844 0-1.481-.115-1.913-.344-.431-.23-.791-.709-1.078-1.439l-.633-1.639c-.748.633-1.467 1.189-2.157 1.668-.69.48-1.405.887-2.143 1.223-.738.336-1.524.584-2.358.748-.834.162-1.759.244-2.775.244-1.361 0-2.598-.178-3.709-.533-1.112-.354-2.056-.877-2.833-1.566-.776-.689-1.376-1.549-1.797-2.572-.422-1.025-.632-2.211-.632-3.553 0-1.072.268-2.16.805-3.264.536-1.102 1.466-2.109 2.79-3.02 1.323-.91 3.106-1.672 5.349-2.287 2.243-.613 5.071-.957 8.483-1.035v-1.266c0-1.744-.359-3.004-1.078-3.781-.719-.777-1.74-1.164-3.063-1.164-1.055 0-1.917.115-2.588.344-.671.23-1.27.49-1.797.777s-1.04.547-1.539.775c-.499.23-1.093.346-1.783.346-.614 0-1.132-.152-1.553-.459-.422-.307-.767-.672-1.035-1.094l-1.612-2.789zm16.047 13.545c-1.783.076-3.25.23-4.4.461-1.15.229-2.061.518-2.732.861-.671.346-1.136.738-1.395 1.18s-.388.92-.388 1.438c0 1.018.278 1.73.834 2.143s1.371.619 2.444.619c1.15 0 2.157-.201 3.02-.604.863-.404 1.735-1.055 2.617-1.957v-4.141zM364.251 513.785l-15.932 37.559c-.269.594-.595 1.031-.978 1.309s-.997.418-1.84.418h-6.671l5.751-12.08-11.905-27.205h7.88c.69 0 1.222.154 1.596.461s.647.672.819 1.094l4.889 12.854c.46 1.17.834 2.369 1.122 3.596l.632-1.84s.432-1.219.662-1.812l4.429-12.797c.173-.441.479-.811.92-1.107.441-.297.92-.447 1.438-.447h7.188zM386.682 543.607v-23.695l-1.956-.402c-.671-.154-1.213-.393-1.625-.719-.413-.326-.619-.807-.619-1.439v-3.508h4.199v-1.697c0-1.705.273-3.25.82-4.629.546-1.381 1.332-2.561 2.358-3.539 1.026-.977 2.276-1.734 3.753-2.271 1.476-.537 3.153-.805 5.033-.805.728 0 1.399.043 2.013.129.614.086 1.256.227 1.927.418l-.173 4.342c-.019.307-.096.561-.23.762-.134.201-.312.365-.532.49s-.456.215-.705.271c-.249.059-.499.088-.748.088-.786 0-1.486.076-2.099.229-.614.154-1.127.428-1.539.82-.413.393-.724.91-.935 1.553s-.316 1.453-.316 2.43v1.41h6.988v6.096h-6.701v23.668h-8.913zM435.14 513.785v29.822h-5.522c-1.112 0-1.84-.498-2.186-1.494l-.518-1.727c-.575.557-1.169 1.061-1.783 1.51-.614.451-1.27.834-1.97 1.15-.7.316-1.457.566-2.272.748s-1.702.273-2.66.273c-1.63 0-3.073-.283-4.328-.85-1.256-.564-2.315-1.355-3.178-2.371s-1.515-2.215-1.956-3.594c-.441-1.381-.662-2.895-.662-4.545v-18.924h8.915v18.924c0 1.477.335 2.617 1.007 3.422.671.807 1.658 1.209 2.962 1.209.978 0 1.893-.207 2.747-.619.853-.412 1.682-.973 2.488-1.682v-21.254h8.916zM452.969 500.557v43.05h-8.915v-43.05h8.915zM470.799 500.557v43.05h-8.915v-43.05h8.915zM508.041 513.785l-15.932 37.559c-.269.594-.595 1.031-.978 1.309s-.997.418-1.84.418h-6.671l5.751-12.08-11.906-27.205h7.88c.69 0 1.222.154 1.596.461.374.307.647.672.82 1.094l4.889 12.854c.46 1.17.834 2.369 1.122 3.596l.632-1.84s.432-1.219.662-1.812l4.429-12.797c.173-.441.479-.811.92-1.107.441-.297.92-.447 1.438-.447h7.188zM536.626 517.467c1.169-1.246 2.497-2.268 3.983-3.062 1.485-.795 3.254-1.193 5.306-1.193 1.553 0 2.991.346 4.314 1.035s2.463 1.688 3.422 2.99c.958 1.305 1.711 2.9 2.257 4.789s.82 4.031.82 6.428c0 2.242-.312 4.314-.935 6.211-.623 1.898-1.495 3.549-2.617 4.947s-2.464 2.492-4.026 3.277c-1.563.787-3.293 1.18-5.191 1.18-1.553 0-2.857-.221-3.911-.662-1.055-.441-2.013-1.035-2.875-1.783v11.447h-8.915v-39.285h5.522c1.111 0 1.84.5 2.186 1.496l.66 2.185zm.546 18.031c.67.73 1.399 1.248 2.186 1.555.786.307 1.61.459 2.473.459.824 0 1.582-.162 2.272-.488.69-.326 1.289-.85 1.797-1.568.508-.719.906-1.652 1.193-2.803s.431-2.551.431-4.199c0-1.572-.115-2.895-.345-3.969s-.551-1.941-.963-2.604c-.413-.66-.906-1.135-1.481-1.422-.575-.289-1.218-.432-1.927-.432-1.304 0-2.377.24-3.221.719-.844.479-1.649 1.178-2.416 2.1v12.652zM563.544 517.928c1.802-1.592 3.8-2.775 5.996-3.553 2.195-.775 4.548-1.164 7.06-1.164 1.802 0 3.427.293 4.875.877 1.447.586 2.675 1.4 3.681 2.445s1.777 2.285 2.314 3.723c.537 1.439.805 3.012.805 4.717v18.635h-4.083c-.844 0-1.481-.115-1.913-.344-.431-.23-.791-.709-1.078-1.439l-.633-1.639c-.748.633-1.467 1.189-2.157 1.668-.69.48-1.405.887-2.143 1.223-.738.336-1.524.584-2.358.748-.834.162-1.759.244-2.775.244-1.361 0-2.598-.178-3.709-.533-1.112-.354-2.056-.877-2.833-1.566-.776-.689-1.376-1.549-1.797-2.572-.422-1.025-.632-2.211-.632-3.553 0-1.072.268-2.16.805-3.264.536-1.102 1.466-2.109 2.79-3.02 1.323-.91 3.106-1.672 5.349-2.287 2.243-.613 5.071-.957 8.483-1.035v-1.266c0-1.744-.359-3.004-1.078-3.781-.719-.777-1.74-1.164-3.063-1.164-1.055 0-1.917.115-2.588.344-.671.23-1.27.49-1.797.777s-1.04.547-1.539.775c-.499.23-1.093.346-1.783.346-.614 0-1.132-.152-1.553-.459-.422-.307-.767-.672-1.035-1.094l-1.611-2.789zm16.047 13.545c-1.783.076-3.25.23-4.4.461-1.15.229-2.061.518-2.732.861-.671.346-1.136.738-1.395 1.18s-.388.92-.388 1.438c0 1.018.278 1.73.834 2.143s1.371.619 2.444.619c1.15 0 2.157-.201 3.02-.604.863-.404 1.735-1.055 2.617-1.957v-4.141zM618.758 520.861c-.269.326-.527.584-.776.775-.25.191-.604.287-1.064.287-.441 0-.839-.104-1.194-.314l-1.193-.705c-.441-.26-.959-.494-1.553-.705-.595-.211-1.333-.316-2.214-.316-1.093 0-2.038.201-2.833.604-.796.402-1.452.979-1.97 1.727s-.901 1.662-1.15 2.746c-.25 1.084-.374 2.305-.374 3.666 0 2.857.551 5.053 1.654 6.586 1.102 1.535 2.622 2.301 4.558 2.301 1.035 0 1.855-.129 2.459-.389.604-.258 1.117-.545 1.539-.861l1.165-.877c.354-.27.8-.404 1.337-.404.709 0 1.246.26 1.61.777l2.588 3.191c-.92 1.055-1.889 1.912-2.905 2.574-1.017.66-2.056 1.178-3.12 1.553-1.064.373-2.133.633-3.207.775-1.074.145-2.119.217-3.135.217-1.822 0-3.562-.346-5.22-1.035-1.659-.691-3.116-1.691-4.371-3.006-1.256-1.312-2.253-2.928-2.991-4.846-.738-1.916-1.107-4.102-1.107-6.557 0-2.146.321-4.154.963-6.023.642-1.871 1.591-3.49 2.847-4.861 1.255-1.371 2.808-2.449 4.659-3.234 1.85-.787 3.993-1.18 6.428-1.18 2.339 0 4.39.373 6.154 1.121 1.764.748 3.354 1.84 4.774 3.279l-2.358 3.134zM636.617 500.557v24.128h1.323c.556 0 .978-.082 1.265-.244s.575-.436.863-.82l5.637-8.396c.345-.48.738-.84 1.179-1.078.441-.24 1.006-.361 1.697-.361h8.167l-7.708 10.613c-.729.959-1.592 1.744-2.588 2.357.441.326.844.705 1.208 1.137.364.432.709.916 1.035 1.451l8.397 14.264h-8.052c-.671 0-1.247-.109-1.726-.33-.479-.221-.882-.609-1.208-1.164l-5.637-10.555c-.269-.479-.546-.791-.834-.934-.288-.145-.719-.217-1.294-.217h-1.726v13.199h-8.915v-43.05h8.917zM668.682 530.293c.288 2.494 1.045 4.301 2.272 5.422 1.227 1.121 2.809 1.682 4.745 1.682 1.035 0 1.927-.123 2.674-.373.748-.25 1.414-.527 1.999-.834.584-.307 1.122-.584 1.61-.834s1.001-.375 1.539-.375c.708 0 1.246.26 1.61.777l2.588 3.191c-.92 1.055-1.913 1.912-2.977 2.574-1.063.66-2.156 1.178-3.278 1.553-1.122.373-2.243.633-3.365.775-1.122.145-2.19.217-3.207.217-2.09 0-4.05-.342-5.881-1.021s-3.432-1.691-4.802-3.033c-1.371-1.342-2.455-3.01-3.25-5.004-.796-1.994-1.193-4.314-1.193-6.959 0-1.994.34-3.883 1.021-5.666.68-1.783 1.658-3.346 2.933-4.688s2.818-2.406 4.63-3.191c1.812-.787 3.858-1.18 6.14-1.18 1.975 0 3.782.307 5.421.92 1.64.613 3.049 1.506 4.227 2.674 1.179 1.17 2.1 2.604 2.761 4.301.661 1.695.992 3.619.992 5.766 0 .672-.028 1.217-.086 1.639s-.163.758-.316 1.008c-.154.248-.359.422-.618.518s-.59.143-.992.143h-17.197zm11.216-5.176c0-.709-.091-1.4-.273-2.07-.182-.672-.479-1.27-.891-1.799-.413-.525-.954-.953-1.625-1.279-.671-.326-1.486-.488-2.444-.488-1.688 0-3.01.484-3.969 1.451-.959.969-1.592 2.363-1.898 4.186h11.1zM722.229 500.557v43.05h-5.521c-1.112 0-1.841-.498-2.186-1.494l-.69-2.273c-.595.633-1.218 1.209-1.87 1.727s-1.356.963-2.113 1.338c-.758.373-1.573.66-2.445.861-.873.201-1.816.303-2.833.303-1.553 0-2.991-.346-4.314-1.035-1.323-.691-2.464-1.688-3.422-2.992-.958-1.303-1.711-2.898-2.257-4.787-.546-1.887-.82-4.041-.82-6.455 0-2.225.307-4.291.92-6.197.613-1.908 1.481-3.557 2.603-4.947s2.468-2.479 4.041-3.264c1.572-.787 3.308-1.18 5.206-1.18 1.553 0 2.856.221 3.911.662 1.054.441 2.013 1.035 2.876 1.783v-15.099h8.914zm-8.915 21.224c-.671-.748-1.4-1.27-2.186-1.568-.786-.297-1.61-.445-2.473-.445-.824 0-1.582.164-2.272.488-.69.326-1.29.85-1.797 1.568-.508.719-.906 1.654-1.193 2.805s-.431 2.539-.431 4.17c0 1.572.115 2.895.345 3.969.23 1.072.551 1.941.963 2.602.412.662.906 1.137 1.481 1.424s1.217.432 1.927.432c.651 0 1.241-.062 1.769-.188.527-.125 1.011-.301 1.452-.531s.858-.523 1.251-.877c.393-.355.781-.762 1.165-1.223v-12.626zM790.04 513.785l-9.26 29.822h-7.248c-.383 0-.709-.115-.978-.344-.269-.23-.479-.613-.633-1.15l-4.256-14.867c-.211-.672-.398-1.334-.561-1.984-.163-.652-.312-1.314-.446-1.984-.134.67-.283 1.342-.446 2.012-.163.672-.35 1.342-.561 2.014l-4.314 14.811c-.288.996-.92 1.494-1.898 1.494h-6.902l-9.26-29.822h7.132c.633 0 1.165.15 1.596.447.431.297.723.666.877 1.107l2.991 13.371c.249 1.018.469 2 .661 2.949.191.949.364 1.902.518 2.861.249-.959.513-1.912.791-2.861.278-.949.58-1.932.906-2.949l3.739-13.4c.153-.441.441-.811.863-1.107.421-.297.92-.445 1.496-.445h3.968c.633 0 1.165.148 1.596.445.432.297.724.666.877 1.107l3.566 13.4c.288 1.018.57 2.004.848 2.963s.532 1.928.762 2.904c.153-.957.335-1.916.546-2.875s.45-1.955.719-2.992l3.163-13.371c.153-.441.44-.811.862-1.107.421-.297.92-.447 1.496-.447h6.79zM806.115 505.619c0 .709-.144 1.375-.431 1.998s-.681 1.17-1.179 1.639c-.499.471-1.079.844-1.74 1.123-.662.277-1.366.416-2.114.416-.729 0-1.409-.139-2.042-.416-.633-.279-1.193-.652-1.682-1.123-.489-.469-.873-1.016-1.15-1.639-.278-.623-.417-1.289-.417-1.998 0-.729.139-1.41.417-2.043.278-.633.661-1.188 1.15-1.668.489-.479 1.049-.852 1.682-1.122.633-.268 1.313-.402 2.042-.402.748 0 1.452.135 2.114.402.661.27 1.241.643 1.74 1.122.499.48.892 1.035 1.179 1.668s.431 1.315.431 2.043zm-.92 8.166v29.822h-8.915v-29.822h8.915zM824.98 544.068c-1.419 0-2.67-.207-3.753-.619-1.083-.412-1.994-.996-2.732-1.754-.738-.758-1.299-1.672-1.683-2.746-.384-1.072-.575-2.271-.575-3.594v-15.416h-2.531c-.46 0-.853-.146-1.179-.445-.327-.297-.489-.732-.489-1.309v-3.479l4.745-.922 1.754-7.275c.23-.92.882-1.381 1.956-1.381h4.659v8.715h7.39v6.096h-7.39v14.812c0 .689.167 1.26.503 1.711.335.449.82.676 1.453.676.326 0 .599-.033.819-.102.22-.066.412-.143.575-.23l.46-.229c.144-.068.312-.102.503-.102.269 0 .484.062.646.188s.331.32.503.59l2.703 4.227c-1.15.861-2.444 1.51-3.882 1.941-1.435.431-2.921.647-4.455.647zM848.188 516.402c1.074-.92 2.238-1.662 3.494-2.229 1.256-.564 2.756-.848 4.501-.848 1.629 0 3.072.283 4.328.848 1.255.566 2.315 1.352 3.178 2.359.863 1.006 1.514 2.205 1.956 3.594.441 1.391.662 2.9.662 4.529v18.951h-8.915v-18.951c0-1.457-.336-2.592-1.007-3.408-.671-.814-1.659-1.221-2.962-1.221-.978 0-1.894.205-2.747.617-.854.412-1.682.975-2.488 1.684v21.279h-8.915v-43.05h8.915v15.846zM920.37 532.768c.23 0 .46.043.69.129s.45.234.662.445l3.854 4.055c-1.687 2.205-3.801 3.867-6.341 4.988-2.541 1.123-5.546 1.684-9.016 1.684-3.183 0-6.035-.541-8.556-1.625-2.521-1.084-4.659-2.578-6.413-4.486-1.754-1.906-3.102-4.17-4.041-6.787-.939-2.617-1.409-5.459-1.409-8.525 0-3.125.508-5.996 1.524-8.613s2.445-4.875 4.285-6.773c1.841-1.898 4.045-3.375 6.614-4.43 2.569-1.053 5.397-1.58 8.484-1.58 1.572 0 3.053.139 4.443.416 1.39.279 2.689.662 3.896 1.15 1.208.488 2.32 1.078 3.336 1.77 1.016.689 1.917 1.438 2.703 2.242l-3.278 4.4c-.211.27-.46.514-.748.732-.288.221-.69.332-1.208.332-.345 0-.671-.076-.978-.23-.307-.152-.633-.34-.978-.561l-1.136-.719c-.413-.26-.901-.498-1.467-.719s-1.227-.408-1.984-.561c-.757-.154-1.644-.23-2.66-.23-1.61 0-3.082.297-4.414.891-1.333.596-2.483 1.463-3.451 2.604s-1.716 2.541-2.243 4.199c-.527 1.658-.791 3.551-.791 5.68 0 2.146.292 4.055.877 5.723.584 1.668 1.38 3.072 2.387 4.213 1.007 1.141 2.181 2.008 3.523 2.602 1.342.596 2.78.893 4.314.893.881 0 1.687-.043 2.416-.129.729-.086 1.409-.23 2.042-.432s1.227-.471 1.783-.805c.556-.336 1.122-.764 1.697-1.281.23-.191.479-.35.748-.475.268-.125.547-.187.834-.187zM944.785 513.326c2.262 0 4.323.355 6.183 1.064 1.859.709 3.456 1.725 4.788 3.047 1.333 1.324 2.368 2.93 3.106 4.818.738 1.889 1.107 4.012 1.107 6.369 0 2.379-.37 4.521-1.107 6.428-.738 1.908-1.773 3.527-3.106 4.859-1.333 1.334-2.929 2.359-4.788 3.078-1.86.719-3.921 1.078-6.183 1.078-2.282 0-4.357-.359-6.226-1.078s-3.48-1.744-4.832-3.078c-1.352-1.332-2.397-2.951-3.135-4.859-.738-1.906-1.107-4.049-1.107-6.428 0-2.357.369-4.48 1.107-6.369.738-1.889 1.783-3.494 3.135-4.818 1.352-1.322 2.962-2.338 4.832-3.047s3.944-1.064 6.226-1.064zm0 24.129c2.051 0 3.561-.725 4.529-2.172s1.453-3.646 1.453-6.6-.484-5.148-1.453-6.586-2.478-2.158-4.529-2.158c-2.109 0-3.652.721-4.63 2.158-.978 1.438-1.467 3.633-1.467 6.586s.489 5.152 1.467 6.6c.978 1.447 2.521 2.172 4.63 2.172zM994.335 500.557v43.05h-5.521c-1.112 0-1.841-.498-2.186-1.494l-.69-2.273c-.595.633-1.218 1.209-1.87 1.727s-1.356.963-2.113 1.338c-.758.373-1.573.66-2.445.861-.873.201-1.816.303-2.833.303-1.553 0-2.99-.346-4.313-1.035-1.323-.691-2.464-1.688-3.422-2.992-.958-1.303-1.711-2.898-2.257-4.787-.546-1.887-.82-4.041-.82-6.455 0-2.225.307-4.291.92-6.197.613-1.908 1.481-3.557 2.603-4.947s2.468-2.479 4.041-3.264c1.572-.787 3.307-1.18 5.205-1.18 1.553 0 2.856.221 3.911.662 1.054.441 2.013 1.035 2.876 1.783v-15.099h8.914zm-8.915 21.224c-.671-.748-1.4-1.27-2.186-1.568-.786-.297-1.61-.445-2.473-.445-.824 0-1.582.164-2.272.488-.69.326-1.29.85-1.797 1.568s-.905 1.654-1.193 2.805-.431 2.539-.431 4.17c0 1.572.115 2.895.345 3.969.23 1.072.551 1.941.963 2.602.412.662.906 1.137 1.481 1.424s1.217.432 1.927.432c.651 0 1.241-.062 1.769-.188.527-.125 1.011-.301 1.452-.531s.858-.523 1.251-.877c.393-.355.781-.762 1.165-1.223v-12.626zM1010.583 530.293c.288 2.494 1.045 4.301 2.272 5.422 1.227 1.121 2.809 1.682 4.745 1.682 1.035 0 1.927-.123 2.674-.373.748-.25 1.414-.527 1.999-.834.584-.307 1.122-.584 1.61-.834s1.001-.375 1.538-.375c.709 0 1.246.26 1.61.777l2.588 3.191c-.92 1.055-1.913 1.912-2.977 2.574-1.064.66-2.156 1.178-3.278 1.553-1.122.373-2.243.633-3.365.775-1.122.145-2.19.217-3.207.217-2.09 0-4.05-.342-5.881-1.021s-3.432-1.691-4.802-3.033c-1.371-1.342-2.455-3.01-3.25-5.004-.796-1.994-1.193-4.314-1.193-6.959 0-1.994.34-3.883 1.021-5.666.68-1.783 1.658-3.346 2.933-4.688s2.818-2.406 4.63-3.191c1.812-.787 3.858-1.18 6.14-1.18 1.975 0 3.782.307 5.421.92 1.64.613 3.049 1.506 4.227 2.674 1.179 1.17 2.1 2.604 2.761 4.301.661 1.695.992 3.619.992 5.766 0 .672-.028 1.217-.086 1.639s-.163.758-.316 1.008c-.154.248-.359.422-.618.518s-.59.143-.992.143h-17.196zm11.216-5.176c0-.709-.091-1.4-.273-2.07-.182-.672-.479-1.27-.891-1.799-.413-.525-.954-.953-1.625-1.279-.671-.326-1.486-.488-2.444-.488-1.688 0-3.01.484-3.969 1.451-.959.969-1.592 2.363-1.898 4.186h11.1zM1052.312 501.707c2.952 0 5.488.35 7.606 1.051 2.118.699 3.863 1.662 5.234 2.889 1.371 1.229 2.382 2.676 3.034 4.344.651 1.668.978 3.471.978 5.406 0 2.09-.336 4.008-1.007 5.752-.671 1.744-1.697 3.24-3.077 4.486s-3.13 2.219-5.249 2.918c-2.119.701-4.625 1.051-7.52 1.051h-5.062v14.004h-9.72v-41.9h14.783zm0 20.563c2.531 0 4.352-.604 5.464-1.811 1.112-1.209 1.668-2.896 1.668-5.062 0-.959-.144-1.83-.431-2.617-.288-.785-.724-1.461-1.309-2.027-.585-.564-1.323-1.002-2.214-1.309s-1.951-.461-3.178-.461h-5.062v13.287h5.062zM1082.104 530.293c.288 2.494 1.045 4.301 2.272 5.422 1.227 1.121 2.809 1.682 4.745 1.682 1.035 0 1.927-.123 2.674-.373.748-.25 1.414-.527 1.999-.834.584-.307 1.122-.584 1.61-.834s1.001-.375 1.539-.375c.709 0 1.246.26 1.61.777l2.588 3.191c-.92 1.055-1.913 1.912-2.977 2.574-1.064.66-2.157 1.178-3.278 1.553-1.122.373-2.243.633-3.365.775-1.122.145-2.19.217-3.207.217-2.09 0-4.05-.342-5.881-1.021s-3.432-1.691-4.802-3.033c-1.371-1.342-2.455-3.01-3.25-5.004s-1.193-4.314-1.193-6.959c0-1.994.34-3.883 1.021-5.666s1.658-3.346 2.933-4.688 2.818-2.406 4.63-3.191c1.812-.787 3.858-1.18 6.14-1.18 1.975 0 3.782.307 5.421.92 1.64.613 3.049 1.506 4.228 2.674 1.179 1.17 2.1 2.604 2.761 4.301.661 1.695.992 3.619.992 5.766 0 .672-.028 1.217-.086 1.639s-.163.758-.316 1.008c-.154.248-.359.422-.618.518s-.59.143-.992.143h-17.198zm11.216-5.176c0-.709-.091-1.4-.273-2.07-.182-.672-.479-1.27-.891-1.799-.413-.525-.954-.953-1.625-1.279-.671-.326-1.486-.488-2.444-.488-1.688 0-3.01.484-3.969 1.451-.959.969-1.592 2.363-1.898 4.186h11.1zM1116.873 517.008c.575-.537 1.169-1.035 1.783-1.496s1.27-.848 1.97-1.164c.7-.316 1.457-.566 2.271-.748.814-.182 1.701-.273 2.66-.273 1.629 0 3.072.283 4.328.848 1.255.566 2.315 1.352 3.178 2.359.863 1.006 1.514 2.205 1.956 3.594.441 1.391.662 2.9.662 4.529v18.951h-8.915v-18.951c0-1.457-.336-2.592-1.007-3.408-.671-.814-1.659-1.221-2.962-1.221-.978 0-1.893.205-2.746.617-.854.412-1.682.975-2.488 1.684v21.279h-8.915v-29.822h5.522c1.111 0 1.84.5 2.186 1.496l.517 1.726zM1159.808 517.928c1.802-1.592 3.8-2.775 5.996-3.553 2.195-.775 4.548-1.164 7.06-1.164 1.802 0 3.427.293 4.875.877 1.447.586 2.675 1.4 3.681 2.445s1.778 2.285 2.315 3.723c.537 1.439.805 3.012.805 4.717v18.635h-4.083c-.844 0-1.481-.115-1.913-.344-.431-.23-.791-.709-1.078-1.439l-.633-1.639c-.748.633-1.467 1.189-2.157 1.668-.69.48-1.405.887-2.143 1.223-.738.336-1.524.584-2.358.748-.834.162-1.759.244-2.775.244-1.361 0-2.598-.178-3.709-.533-1.112-.354-2.056-.877-2.833-1.566-.776-.689-1.376-1.549-1.797-2.572-.422-1.025-.632-2.211-.632-3.553 0-1.072.268-2.16.805-3.264.536-1.102 1.466-2.109 2.79-3.02 1.323-.91 3.106-1.672 5.349-2.287 2.243-.613 5.07-.957 8.483-1.035v-1.266c0-1.744-.359-3.004-1.078-3.781-.719-.777-1.74-1.164-3.063-1.164-1.054 0-1.917.115-2.588.344-.671.23-1.27.49-1.797.777s-1.04.547-1.539.775c-.499.23-1.093.346-1.783.346-.614 0-1.132-.152-1.553-.459-.422-.307-.767-.672-1.035-1.094l-1.612-2.789zm16.046 13.545c-1.783.076-3.25.23-4.4.461-1.15.229-2.061.518-2.731.861-.671.346-1.136.738-1.395 1.18s-.388.92-.388 1.438c0 1.018.278 1.73.834 2.143s1.371.619 2.444.619c1.15 0 2.157-.201 3.02-.604.863-.404 1.735-1.055 2.617-1.957v-4.141zM1236.678 513.785l-9.261 29.822h-7.247c-.384 0-.709-.115-.978-.344-.269-.23-.479-.613-.633-1.15l-4.256-14.867c-.212-.672-.398-1.334-.562-1.984-.163-.652-.312-1.314-.445-1.984-.135.67-.283 1.342-.445 2.012-.163.672-.351 1.342-.562 2.014l-4.313 14.811c-.287.996-.92 1.494-1.898 1.494h-6.901l-9.261-29.822h7.133c.632 0 1.164.15 1.596.447s.724.666.877 1.107l2.991 13.371c.249 1.018.47 2 .661 2.949s.364 1.902.518 2.861c.249-.959.513-1.912.791-2.861.277-.949.58-1.932.906-2.949l3.738-13.4c.153-.441.44-.811.862-1.107s.921-.445 1.496-.445h3.969c.633 0 1.164.148 1.596.445s.724.666.877 1.107l3.566 13.4c.287 1.018.57 2.004.849 2.963.277.959.531 1.928.762 2.904.153-.957.335-1.916.547-2.875.21-.959.45-1.955.719-2.992l3.163-13.371c.153-.441.441-.811.863-1.107.421-.297.92-.447 1.495-.447h6.787zM1249.503 530.293c.287 2.494 1.044 4.301 2.271 5.422 1.227 1.121 2.809 1.682 4.745 1.682 1.035 0 1.927-.123 2.675-.373.747-.25 1.413-.527 1.998-.834s1.122-.584 1.611-.834c.488-.25 1.001-.375 1.538-.375.709 0 1.246.26 1.61.777l2.589 3.191c-.921 1.055-1.913 1.912-2.977 2.574-1.064.66-2.157 1.178-3.279 1.553-1.121.373-2.243.633-3.364.775-1.122.145-2.19.217-3.207.217-2.09 0-4.05-.342-5.881-1.021s-3.432-1.691-4.803-3.033c-1.37-1.342-2.453-3.01-3.248-5.004-.796-1.994-1.194-4.314-1.194-6.959 0-1.994.341-3.883 1.021-5.666s1.658-3.346 2.933-4.688 2.818-2.406 4.63-3.191c1.812-.787 3.858-1.18 6.14-1.18 1.975 0 3.782.307 5.421.92 1.64.613 3.049 1.506 4.228 2.674 1.18 1.17 2.1 2.604 2.761 4.301.662 1.695.992 3.619.992 5.766 0 .672-.028 1.217-.086 1.639s-.163.758-.316 1.008c-.153.248-.359.422-.618.518s-.59.143-.992.143h-17.198zm11.216-5.176c0-.709-.092-1.4-.273-2.07-.183-.672-.479-1.27-.892-1.799-.413-.525-.954-.953-1.625-1.279s-1.486-.488-2.444-.488c-1.688 0-3.011.484-3.969 1.451-.959.969-1.592 2.363-1.898 4.186h11.101zM1294.999 520.314c-.23.365-.475.623-.733.775-.259.154-.59.23-.992.23-.422 0-.844-.09-1.266-.273l-1.366-.588c-.488-.211-1.04-.408-1.653-.59-.614-.182-1.313-.273-2.1-.273-1.131 0-1.998.215-2.603.646-.604.432-.905 1.031-.905 1.797 0 .557.196 1.018.589 1.381.393.365.916.686 1.567.963.651.279 1.39.543 2.215.791.824.25 1.668.527 2.53.834.863.309 1.706.668 2.531 1.08.824.412 1.562.92 2.214 1.523s1.175 1.338 1.567 2.199c.393.863.59 1.898.59 3.107 0 1.477-.269 2.836-.806 4.082-.537 1.248-1.337 2.32-2.401 3.221-1.063.902-2.377 1.602-3.939 2.1s-3.36.748-5.393.748c-1.017 0-2.032-.096-3.048-.287-1.017-.191-1.999-.451-2.948-.777s-1.826-.715-2.631-1.164c-.806-.451-1.496-.936-2.071-1.453l2.071-3.277c.229-.383.521-.686.877-.906.354-.221.81-.33 1.366-.33.518 0 .982.115 1.395.346l1.337.746c.479.27 1.04.518 1.683.748s1.452.346 2.43.346c.69 0 1.275-.072 1.755-.217.479-.143.862-.34 1.15-.588.287-.25.498-.527.633-.834.134-.307.201-.623.201-.949 0-.594-.201-1.084-.604-1.467-.402-.383-.93-.715-1.581-.992-.652-.277-1.396-.537-2.229-.777-.834-.238-1.682-.512-2.545-.818-.862-.307-1.711-.676-2.545-1.107s-1.577-.979-2.229-1.641c-.652-.66-1.18-1.471-1.582-2.43s-.604-2.117-.604-3.48c0-1.264.244-2.467.733-3.607.488-1.141 1.222-2.143 2.199-3.006.979-.863 2.205-1.549 3.682-2.057 1.476-.508 3.201-.762 5.177-.762 1.073 0 2.113.096 3.12.287 1.006.191 1.95.461 2.832.805.882.346 1.688.754 2.416 1.223.729.471 1.371.982 1.927 1.539l-2.013 3.133zM1318.293 513.326c2.262 0 4.323.355 6.183 1.064s3.455 1.725 4.788 3.047c1.333 1.324 2.368 2.93 3.106 4.818.737 1.889 1.106 4.012 1.106 6.369 0 2.379-.369 4.521-1.106 6.428-.738 1.908-1.773 3.527-3.106 4.859-1.333 1.334-2.929 2.359-4.788 3.078s-3.921 1.078-6.183 1.078c-2.282 0-4.357-.359-6.227-1.078s-3.479-1.744-4.831-3.078c-1.353-1.332-2.397-2.951-3.135-4.859-.738-1.906-1.107-4.049-1.107-6.428 0-2.357.369-4.48 1.107-6.369.737-1.889 1.782-3.494 3.135-4.818 1.352-1.322 2.962-2.338 4.831-3.047s3.945-1.064 6.227-1.064zm0 24.129c2.051 0 3.561-.725 4.529-2.172s1.452-3.646 1.452-6.6-.484-5.148-1.452-6.586c-.969-1.438-2.479-2.158-4.529-2.158-2.109 0-3.652.721-4.631 2.158-.978 1.438-1.467 3.633-1.467 6.586s.489 5.152 1.467 6.6c.979 1.447 2.522 2.172 4.631 2.172zM1340.839 543.607v-29.822h5.521c1.112 0 1.841.5 2.186 1.496l.489 1.611c.498-.518 1.016-.992 1.553-1.424s1.117-.805 1.74-1.121 1.294-.566 2.013-.748 1.51-.273 2.373-.273c1.802 0 3.293.465 4.472 1.395s2.075 2.172 2.688 3.725c.499-.92 1.107-1.707 1.826-2.359.72-.65 1.496-1.178 2.33-1.58.834-.404 1.716-.701 2.646-.893s1.855-.287 2.775-.287c1.706 0 3.221.254 4.544.762 1.322.508 2.43 1.246 3.321 2.215s1.567 2.156 2.027 3.566c.46 1.408.69 3.004.69 4.787v18.951h-8.915v-18.951c0-3.086-1.323-4.629-3.969-4.629-1.208 0-2.21.398-3.005 1.193-.796.795-1.193 1.941-1.193 3.436v18.951h-8.916v-18.951c0-1.705-.335-2.904-1.006-3.594-.672-.691-1.659-1.035-2.962-1.035-.806 0-1.567.182-2.287.545-.719.365-1.395.854-2.027 1.467v21.568h-8.914zM1399.996 530.293c.287 2.494 1.044 4.301 2.271 5.422 1.227 1.121 2.809 1.682 4.745 1.682 1.035 0 1.927-.123 2.675-.373.747-.25 1.413-.527 1.998-.834s1.122-.584 1.611-.834c.488-.25 1.001-.375 1.538-.375.709 0 1.246.26 1.61.777l2.589 3.191c-.921 1.055-1.913 1.912-2.977 2.574-1.064.66-2.157 1.178-3.279 1.553-1.121.373-2.243.633-3.364.775-1.122.145-2.19.217-3.207.217-2.09 0-4.05-.342-5.881-1.021s-3.432-1.691-4.803-3.033-2.454-3.01-3.249-5.004c-.796-1.994-1.194-4.314-1.194-6.959 0-1.994.341-3.883 1.021-5.666s1.658-3.346 2.934-4.688c1.274-1.342 2.818-2.406 4.63-3.191 1.812-.787 3.858-1.18 6.14-1.18 1.975 0 3.782.307 5.421.92 1.64.613 3.049 1.506 4.228 2.674 1.18 1.17 2.1 2.604 2.761 4.301.662 1.695.992 3.619.992 5.766 0 .672-.028 1.217-.086 1.639s-.163.758-.316 1.008c-.153.248-.359.422-.618.518s-.59.143-.992.143h-17.198zm11.215-5.176c0-.709-.092-1.4-.273-2.07-.183-.672-.479-1.27-.892-1.799-.413-.525-.954-.953-1.625-1.279s-1.486-.488-2.444-.488c-1.688 0-3.011.484-3.969 1.451-.959.969-1.592 2.363-1.898 4.186h11.101zM1434.763 517.008c.575-.537 1.17-1.035 1.783-1.496s1.271-.848 1.97-1.164c.7-.316 1.456-.566 2.271-.748.814-.182 1.701-.273 2.66-.273 1.629 0 3.072.283 4.328.848 1.256.566 2.315 1.352 3.178 2.359.862 1.006 1.515 2.205 1.956 3.594.44 1.391.661 2.9.661 4.529v18.951h-8.915v-18.951c0-1.457-.336-2.592-1.007-3.408-.671-.814-1.658-1.221-2.962-1.221-.978 0-1.893.205-2.745.617-.854.412-1.683.975-2.488 1.684v21.279h-8.915v-29.822h5.521c1.112 0 1.841.5 2.186 1.496l.518 1.726zM1469.532 530.293c.287 2.494 1.044 4.301 2.271 5.422 1.227 1.121 2.809 1.682 4.745 1.682 1.035 0 1.927-.123 2.675-.373.747-.25 1.413-.527 1.998-.834s1.122-.584 1.611-.834c.488-.25 1.001-.375 1.538-.375.709 0 1.246.26 1.61.777l2.589 3.191c-.921 1.055-1.913 1.912-2.977 2.574-1.064.66-2.157 1.178-3.279 1.553-1.121.373-2.243.633-3.364.775-1.122.145-2.19.217-3.207.217-2.09 0-4.05-.342-5.881-1.021s-3.432-1.691-4.803-3.033-2.454-3.01-3.249-5.004c-.796-1.994-1.194-4.314-1.194-6.959 0-1.994.341-3.883 1.021-5.666s1.658-3.346 2.934-4.688c1.274-1.342 2.818-2.406 4.63-3.191 1.812-.787 3.858-1.18 6.14-1.18 1.975 0 3.782.307 5.421.92 1.64.613 3.049 1.506 4.228 2.674 1.18 1.17 2.1 2.604 2.761 4.301.662 1.695.992 3.619.992 5.766 0 .672-.028 1.217-.086 1.639s-.163.758-.316 1.008c-.153.248-.359.422-.618.518s-.59.143-.992.143h-17.198zm11.216-5.176c0-.709-.092-1.4-.273-2.07-.183-.672-.479-1.27-.892-1.799-.413-.525-.954-.953-1.625-1.279s-1.486-.488-2.444-.488c-1.688 0-3.011.484-3.969 1.451-.959.969-1.592 2.363-1.898 4.186h11.101zM1515.027 520.314c-.23.365-.475.623-.734.775-.258.154-.59.23-.992.23-.422 0-.844-.09-1.266-.273l-1.365-.588s-1.041-.408-1.654-.59-1.312-.273-2.1-.273c-1.131 0-1.998.215-2.602.646s-.906 1.031-.906 1.797c0 .557.197 1.018.59 1.381.393.365.916.686 1.566.963.652.279 1.391.543 2.215.791.824.25 1.668.527 2.531.834.863.309 1.705.668 2.531 1.08.824.412 1.562.92 2.213 1.523.652.604 1.176 1.338 1.568 2.199.393.863.59 1.898.59 3.107 0 1.477-.27 2.836-.807 4.082-.537 1.248-1.336 2.32-2.4 3.221-1.064.902-2.377 1.602-3.939 2.1s-3.361.748-5.393.748c-1.018 0-2.033-.096-3.049-.287-1.016-.191-1.999-.451-2.948-.777s-1.826-.715-2.631-1.164c-.806-.451-1.496-.936-2.071-1.453l2.071-3.277c.229-.383.521-.686.877-.906.354-.221.81-.33 1.366-.33.518 0 .982.115 1.395.346l1.337.746c.479.27 1.039.518 1.682.748s1.453.346 2.43.346c.691 0 1.275-.072 1.756-.217.479-.143.861-.34 1.15-.588.287-.25.498-.527.633-.834.133-.307.201-.623.201-.949 0-.594-.201-1.084-.605-1.467-.402-.383-.93-.715-1.58-.992-.652-.277-1.396-.537-2.23-.777-.834-.238-1.682-.512-2.545-.818-.861-.307-1.71-.676-2.544-1.107s-1.577-.979-2.229-1.641c-.652-.66-1.18-1.471-1.582-2.43s-.604-2.117-.604-3.48c0-1.264.244-2.467.733-3.607.488-1.141 1.222-2.143 2.199-3.006.979-.863 2.205-1.549 3.682-2.057 1.475-.508 3.201-.762 5.176-.762 1.074 0 2.113.096 3.121.287 1.006.191 1.949.461 2.832.805.881.346 1.688.754 2.416 1.223.729.471 1.371.982 1.926 1.539l-2.011 3.133zM1543.525 520.314c-.23.365-.475.623-.734.775-.258.154-.59.23-.992.23-.422 0-.844-.09-1.266-.273l-1.365-.588s-1.041-.408-1.654-.59-1.312-.273-2.098-.273c-1.131 0-1.998.215-2.604.646-.604.432-.904 1.031-.904 1.797 0 .557.195 1.018.588 1.381.393.365.916.686 1.568.963.65.279 1.389.543 2.215.791.822.25 1.666.527 2.529.834.863.309 1.705.668 2.531 1.08.824.412 1.562.92 2.213 1.523.652.604 1.176 1.338 1.568 2.199.393.863.59 1.898.59 3.107 0 1.477-.27 2.836-.807 4.082-.537 1.248-1.336 2.32-2.4 3.221-1.064.902-2.377 1.602-3.939 2.1s-3.359.748-5.393.748c-1.016 0-2.031-.096-3.047-.287-1.018-.191-2-.451-2.949-.777s-1.826-.715-2.631-1.164c-.805-.451-1.496-.936-2.07-1.453l2.07-3.277c.23-.383.521-.686.877-.906s.811-.33 1.367-.33c.518 0 .982.115 1.395.346l1.336.746c.48.27 1.041.518 1.684.748s1.451.346 2.43.346c.689 0 1.275-.072 1.754-.217.479-.143.863-.34 1.15-.588.287-.25.498-.527.633-.834.133-.307.201-.623.201-.949 0-.594-.201-1.084-.604-1.467s-.93-.715-1.582-.992-1.395-.537-2.229-.777c-.834-.238-1.682-.512-2.545-.818s-1.711-.676-2.545-1.107-1.578-.979-2.229-1.641c-.652-.66-1.18-1.471-1.582-2.43s-.604-2.117-.604-3.48c0-1.264.244-2.467.732-3.607s1.223-2.143 2.199-3.006c.979-.863 2.205-1.549 3.682-2.057s3.201-.762 5.178-.762c1.072 0 2.111.096 3.119.287 1.006.191 1.949.461 2.832.805.881.346 1.688.754 2.416 1.223.729.471 1.371.982 1.926 1.539l-2.01 3.133zM1571.449 543.607v-23.695l-1.955-.402c-.672-.154-1.213-.393-1.625-.719s-.619-.807-.619-1.439v-3.508h4.199v-1.697c0-1.705.273-3.25.82-4.629.545-1.381 1.332-2.561 2.357-3.539 1.025-.977 2.277-1.734 3.754-2.271 1.475-.537 3.152-.805 5.031-.805.729 0 1.4.043 2.014.129.613.086 1.256.227 1.928.418l-.174 4.342c-.02.307-.096.561-.23.762-.133.201-.311.365-.531.49s-.455.215-.705.271c-.248.059-.498.088-.746.088-.787 0-1.486.076-2.1.229-.615.154-1.127.428-1.539.82s-.725.91-.936 1.553-.316 1.453-.316 2.43v1.41h6.988v6.096h-6.699v23.668h-8.916zM1606.305 513.326c2.262 0 4.322.355 6.182 1.064s3.455 1.725 4.789 3.047c1.332 1.324 2.367 2.93 3.105 4.818s1.107 4.012 1.107 6.369c0 2.379-.369 4.521-1.107 6.428-.738 1.908-1.773 3.527-3.105 4.859-1.334 1.334-2.93 2.359-4.789 3.078s-3.92 1.078-6.182 1.078c-2.283 0-4.357-.359-6.227-1.078s-3.48-1.744-4.832-3.078c-1.352-1.332-2.396-2.951-3.135-4.859-.738-1.906-1.107-4.049-1.107-6.428 0-2.357.369-4.48 1.107-6.369s1.783-3.494 3.135-4.818c1.352-1.322 2.963-2.338 4.832-3.047s3.943-1.064 6.227-1.064zm0 24.129c2.051 0 3.561-.725 4.529-2.172.967-1.447 1.451-3.646 1.451-6.6s-.484-5.148-1.451-6.586c-.969-1.438-2.479-2.158-4.529-2.158-2.109 0-3.652.721-4.631 2.158s-1.467 3.633-1.467 6.586.488 5.152 1.467 6.6 2.521 2.172 4.631 2.172zM1637.189 518.387c.92-1.609 1.979-2.875 3.178-3.795 1.197-.92 2.574-1.381 4.127-1.381 1.342 0 2.434.316 3.277.949l-.574 6.557c-.096.422-.254.709-.475.863-.221.152-.523.23-.906.23-.154 0-.355-.01-.604-.029l-.777-.072-.818-.086c-.279-.029-.533-.043-.762-.043-1.305 0-2.344.344-3.121 1.035-.777.689-1.434 1.648-1.971 2.875v18.117h-8.914v-29.822h5.293c.439 0 .809.039 1.105.115.297.078.547.197.748.359.201.164.354.379.459.648.105.268.197.594.273.977l.462 2.503zM1695.539 513.785l-15.932 37.559c-.27.594-.594 1.031-.979 1.309-.383.277-.996.418-1.84.418h-6.672l5.752-12.08-11.906-27.205h7.879c.691 0 1.223.154 1.598.461.373.307.646.672.818 1.094l4.889 12.854c.461 1.17.834 2.369 1.123 3.596l.633-1.84c.209-.613.43-1.219.66-1.812l4.43-12.797c.172-.441.479-.811.92-1.107s.92-.447 1.438-.447h7.189zM1713.744 513.326c2.262 0 4.324.355 6.184 1.064s3.455 1.725 4.787 3.047c1.334 1.324 2.369 2.93 3.107 4.818.736 1.889 1.105 4.012 1.105 6.369 0 2.379-.369 4.521-1.105 6.428-.738 1.908-1.773 3.527-3.107 4.859-1.332 1.334-2.928 2.359-4.787 3.078s-3.922 1.078-6.184 1.078c-2.281 0-4.357-.359-6.227-1.078s-3.479-1.744-4.83-3.078c-1.354-1.332-2.398-2.951-3.135-4.859-.738-1.906-1.107-4.049-1.107-6.428 0-2.357.369-4.48 1.107-6.369.736-1.889 1.781-3.494 3.135-4.818 1.352-1.322 2.961-2.338 4.83-3.047s3.946-1.064 6.227-1.064zm0 24.129c2.051 0 3.561-.725 4.529-2.172s1.453-3.646 1.453-6.6-.484-5.148-1.453-6.586-2.479-2.158-4.529-2.158c-2.109 0-3.652.721-4.631 2.158-.977 1.438-1.467 3.633-1.467 6.586s.49 5.152 1.467 6.6c.979 1.447 2.522 2.172 4.631 2.172zM1763.033 513.785v29.822h-5.521c-1.111 0-1.84-.498-2.186-1.494l-.518-1.727c-.574.557-1.17 1.061-1.783 1.51-.613.451-1.27.834-1.969 1.15-.701.316-1.457.566-2.271.748-.816.182-1.703.273-2.66.273-1.631 0-3.074-.283-4.328-.85-1.258-.564-2.316-1.355-3.18-2.371-.861-1.016-1.514-2.215-1.955-3.594-.441-1.381-.66-2.895-.66-4.545v-18.924h8.914v18.924c0 1.477.336 2.617 1.006 3.422.672.807 1.658 1.209 2.963 1.209.979 0 1.893-.207 2.746-.619s1.684-.973 2.488-1.682v-21.254h8.914zM1772.207 539.094c0-.689.131-1.332.389-1.928.26-.594.613-1.111 1.064-1.553.449-.439.982-.791 1.596-1.049.613-.26 1.285-.389 2.014-.389.709 0 1.371.129 1.984.389.613.258 1.15.609 1.609 1.049.461.441.82.959 1.08 1.553.258.596.387 1.238.387 1.928s-.129 1.336-.387 1.939c-.26.605-.619 1.127-1.08 1.568-.459.441-.996.787-1.609 1.035s-1.275.373-1.984.373c-.729 0-1.4-.125-2.014-.373s-1.146-.594-1.596-1.035c-.451-.441-.805-.963-1.064-1.568-.258-.603-.389-1.25-.389-1.939zm9.318-37.387v16.451c0 1.764-.105 3.512-.316 5.248-.211 1.734-.488 3.504-.834 5.305h-6.039c-.346-1.801-.623-3.57-.834-5.305-.211-1.736-.316-3.484-.316-5.248v-16.451h8.339z"/></g><path fill="none" d="M207.42 660.681h550.523v34.51h-550.523z"/><text transform="translate(207.349 679.072)" fill="#F9F9F9" font-family="'Lato-Black'" font-size="24.65" letter-spacing="1">Sponsored by:</text><path fill="#fff" d="M217.616 764.261c-6.574 0-9.99-3.57-10.197-10.66 0-.361.155-.621.518-.674l5.02-.828c.26-.051.571.105.622.365v.154c.155 4.295 1.449 6.004 4.192 6.004 2.589 0 3.83-1.398 3.83-5.797 0-4.4-.828-5.795-4.037-7.092l-2.38-.98c-5.642-2.227-7.35-5.178-7.35-11.492 0-6.986 3.209-10.869 9.886-10.869s9.627 3.57 9.99 9.938c0 .361-.208.518-.518.672l-4.761.727c-.363.049-.674-.105-.674-.467-.103-3.365-1.19-5.229-3.829-5.229-2.536 0-3.728 1.555-3.728 4.918 0 3.777.724 4.918 3.933 6.16l2.486.932c5.33 2.121 7.4 4.967 7.4 11.902.051 8.128-2.64 12.316-10.403 12.316zM229.985 723.583c0-.312.208-.57.518-.623h5.28c.312 0 .569.207.622.518v39.596c0 .309-.207.568-.517.621h-5.3309999999999995c-.311 0-.57-.207-.622-.518v-39.593999999999994h.05zM239.716 723.583c0-.312.207-.57.516-.623h6.419c.415-.051.777.207.828.623l7.556 28.154h.312v-28.154c0-.312.206-.57.517-.623h4.502c.311 0 .57.207.621.518v39.596c0 .309-.207.568-.517.621h-6.004c-.414.051-.775-.207-.827-.621l-7.92-28.105h-.362v28.156c0 .311-.207.57-.518.621h-4.502c-.31 0-.569-.207-.621-.516v-39.647zM264.353 723.583c0-.312.207-.57.517-.623h6.367c.415-.051.776.207.828.623l7.558 28.154h.31v-28.154c0-.312.208-.57.518-.623h4.555c.311 0 .569.207.621.518v39.596c0 .309-.207.568-.518.621h-6.004c-.414.051-.776-.207-.828-.621l-7.919-28.156h-.362v28.156c0 .309-.207.568-.518.621h-4.502c-.311 0-.57-.207-.622-.518v-39.593999999999994h-.001zM288.989 723.583c0-.312.208-.57.518-.623h16.769000000000002c.309 0 .569.207.621.518v4.66c0 .309-.208.57-.519.621h-10.61c-.155 0-.311.102-.362.256v10.818c0 .156.104.312.259.363h9.213999999999999c.31 0 .569.207.621.518v4.658c0 .309-.207.568-.518.621h-9.161000000000001c-.156 0-.311.104-.363.258v11.231c0 .158.104.312.259.365h10.559c.309 0 .569.205.621.516v4.658c0 .311-.208.57-.519.621h-16.767999999999997c-.31 0-.569-.207-.621-.518v-39.541000000000004zM325.478 763.694c-.311.051-.569-.156-.673-.416l-4.968-16.248h-3.053c-.157 0-.311.1-.363.256v15.787999999999998c0 .309-.207.568-.517.621h-5.226999999999999c-.312 0-.571-.207-.621-.518v-39.593999999999994c0-.312.207-.57.517-.623h8.28c7.246 0 11.646 3.156 11.646 12.111 0 5.332-1.812 8.695-4.866 10.402l5.746 17.6c.103.309 0 .621-.312.621h-5.589zm-1.449-28.623c0-4.812-1.554-6.312-5.176-6.312h-2.07c-.157 0-.311.102-.363.256v12.009c0 .156.104.309.26.363h2.174c3.621.001 5.175-1.45 5.175-6.316zM343.179 764.261c-6.573 0-9.989-3.518-10.195-10.66 0-.361.103-.621.464-.674l5.021-.828c.259-.051.569.105.622.365v.154c.206 4.295 1.449 6.004 4.192 6.004 2.587 0 3.83-1.398 3.83-5.797 0-4.4-.828-5.795-4.037-7.092l-2.432-.932c-5.642-2.227-7.298-5.176-7.298-11.49 0-6.986 3.157-10.869 9.886-10.869 6.728 0 9.626 3.574 9.989 9.938 0 .363-.156.518-.518.674l-4.813.723c-.363.053-.674-.102-.674-.465-.103-3.363-1.19-5.227-3.83-5.227-2.536 0-3.727 1.553-3.727 4.916 0 3.777.726 4.918 3.934 6.16l2.485.93c5.331 2.123 7.452 4.969 7.452 11.906.103 8.076-2.588 12.264-10.351 12.264zM356.015 743.353c0-11.332.258-12.99.775-14.699 1.243-3.883 4.245-6.211 9.214-6.211 5.796 0 9.471 3.002 9.833 9.783.051.363-.052.672-.414.725l-4.865.826c-.259.053-.57-.102-.621-.361v-.154c-.208-3.467-1.399-4.969-3.727-4.969-1.812 0-2.743.775-3.209 2.277-.311.932-.414 1.811-.414 12.836 0 11.023.104 11.852.414 12.836.466 1.5 1.45 2.277 3.209 2.277 2.328 0 3.519-1.502 3.727-4.969 0-.311.207-.52.517-.52h.155l4.866.83c.362.051.466.361.414.723-.362 6.781-4.037 9.783-9.834 9.783-4.968 0-7.97-2.33-9.212-6.211-.571-1.81-.828-3.519-.828-14.802zM379.306 723.583c0-.312.207-.57.518-.623h5.279c.311 0 .57.207.622.518v16.098000000000003c0 .154.104.311.258.361h6.988c.154 0 .311-.104.362-.258v-16.149c0-.312.208-.57.518-.621h5.279c.31 0 .569.207.621.516v39.596c0 .311-.208.57-.518.621h-5.227c-.31 0-.569-.207-.621-.518v-16.974999999999998c0-.156-.104-.312-.26-.365h-7.039c-.155 0-.311.105-.362.26v17.080000000000002c0 .311-.208.57-.518.621h-5.279999999999999c-.311 0-.569-.207-.621-.516v-39.646zM418.59 763.694c-.311.051-.569-.156-.674-.416l-4.968-16.248h-3.053c-.156-.055-.312.1-.363.256v15.787999999999998c0 .309-.208.568-.518.621h-5.28c-.311 0-.569-.207-.621-.518v-39.593999999999994c0-.312.207-.57.517-.623h8.281c7.247 0 11.646 3.156 11.646 12.111 0 5.332-1.812 8.695-4.865 10.402l5.746 17.6c.103.309 0 .621-.312.621h-5.536zm-1.45-28.623c0-4.812-1.552-6.312-5.175-6.312h-2.07c-.156-.051-.312.102-.363.256v12.009c0 .156.104.311.259.363h2.174c3.623.001 5.175-1.45 5.175-6.316zM434.996 723.583c.104-.365.311-.623.672-.623h5.021c.362 0 .621.258.673.623l8.643 39.541c.104.258-.051.518-.311.57-.051 0-.103.051-.207 0h-5.072c-.362 0-.621-.26-.673-.57v-.051l-1.604-8.23h-8.074l-1.605 8.23c0 .361-.311.621-.621.621h-5.124c-.259 0-.467-.156-.518-.416v-.205l8.8-39.49zm6.056 25.93l-2.899-15.166h-.155l-3.002 15.166h6.056zM452.024 723.583c0-.312.208-.57.518-.623h9.523c5.332 0 8.437 2.174 9.886 6.521.725 2.227 1.034 4.969 1.034 13.82 0 8.85-.31 11.645-1.034 13.818-1.45 4.348-4.555 6.521-9.886 6.521h-9.419c-.311 0-.569-.207-.622-.518v-39.539zm6.781 34.314h2.587c2.277 0 3.623-.881 4.295-2.951.467-1.502.725-3.467.725-11.645s-.207-10.094-.672-11.594c-.725-2.02-2.019-2.949-4.296-2.949h-2.588c-.156 0-.311.102-.363.256v28.519000000000002c-.051.156.104.312.259.363h.053zM475.574 723.583c0-.312.207-.57.517-.623h16.769000000000002c.312 0 .57.207.622.518v4.66c0 .309-.207.57-.517.621h-10.610999999999999c-.155-.051-.311.102-.362.256v10.818c0 .156.103.312.258.363h9.213c.311 0 .57.207.621.518v4.658c0 .311-.207.568-.517.621h-9.161999999999999c-.156-.053-.311.104-.362.258v11.231c0 .158.103.312.259.365h10.662999999999998c.311 0 .568.205.621.516v4.658c0 .311-.208.57-.517.621h-16.77c-.311 0-.57-.207-.621-.518v-.051l-.104-39.49zM512.062 763.694c-.311.051-.569-.156-.673-.416l-4.969-16.248h-3.054c-.154 0-.31.1-.362.256v15.787999999999998c0 .309-.207.568-.518.621h-5.2780000000000005c-.311 0-.57-.207-.621-.518v-39.593999999999994c0-.312.205-.57.518-.623h8.281c7.246 0 11.645 3.156 11.645 12.111 0 5.332-1.811 8.695-4.865 10.402l5.745 17.6c.104.309 0 .621-.311.621h-5.538zm-1.448-28.623c0-4.812-1.553-6.312-5.176-6.312h-2.071c-.154 0-.31.102-.362.256v12.009c0 .156.104.311.259.363h2.1740000000000004c3.623.001 5.176-1.45 5.176-6.316zM207.419 775.806h4.813c3.262 0 5.953 1.449 5.953 4.969v.104c0 3.623-2.691 5.02-5.953 5.02h-2.743v6.885h-2.071v-16.978zm4.969 8.437c2.433 0 3.728-1.193 3.728-3.365v-.104c0-2.381-1.449-3.312-3.728-3.312h-2.898v6.781h2.898zM219.738 789.313c0-2.898 3.053-3.83 6.21-3.83h1.761v-.879c0-1.969-.777-2.797-2.64-2.797-1.708 0-2.639.725-2.846 2.227h-1.967c.259-2.846 2.536-3.883 4.917-3.883s4.555.982 4.555 4.453v8.178h-1.968v-1.553c-.88 1.189-2.38 1.863-3.881 1.76-2.278 0-4.141-1.086-4.141-3.676zm8.022-.88v-1.553h-1.708c-2.484 0-4.296.621-4.296 2.434 0 1.293.622 2.07 2.33 2.07 2.069.053 3.674-1.035 3.674-2.951zM233.453 780.36h1.967v2.225c.776-1.396 1.863-2.379 4.088-2.434v1.865c-2.484.102-4.088.879-4.088 3.984v6.781h-1.967v-12.421zM242.718 789.677v-7.66h-1.761v-1.656h1.761v-2.846h1.966v2.846h2.898v1.656h-2.898v7.453c0 1.188.569 1.812 1.553 1.812.517 0 1.035-.053 1.5-.26v1.654c-.517.207-1.138.258-1.708.258-2.224.001-3.311-1.29-3.311-3.257zM255.761 786.675v-.207c0-3.727 2.587-6.316 6.107-6.316s6.108 2.59 6.108 6.316v.207c0 3.727-2.588 6.314-6.108 6.314-3.52 0-6.107-2.691-6.107-6.314zm10.144 0v-.156c0-2.9-1.604-4.711-4.037-4.711s-4.037 1.863-4.037 4.711v.207c0 2.846 1.553 4.658 4.037 4.658s4.037-1.914 4.037-4.709zM271.287 782.017h-1.759v-1.656h1.759v-2.02c0-2.535 1.243-3.984 3.676-3.984.518 0 .982.051 1.449.258v1.656c-.467-.156-.931-.258-1.397-.258-1.293 0-1.812.879-1.812 2.121v2.227h3.054v1.656h-3.054v10.766h-1.966v-10.766h.05zM289.714 775.806h2.691l5.745 16.977h-2.018l-1.656-4.918h-7.04l-1.656 4.918h-1.967l5.901-16.977zm-1.708 10.455h5.899l-2.949-8.746-2.95 8.746zM299.548 786.726v-.207c0-3.777 2.691-6.367 6.003-6.367 2.588 0 5.021 1.193 5.382 4.35h-1.966c-.31-1.969-1.76-2.693-3.416-2.693-2.278 0-3.984 1.811-3.984 4.711v.207c0 3.053 1.656 4.658 4.037 4.658 1.761 0 3.364-1.035 3.571-3.053h1.811c-.258 2.691-2.432 4.658-5.435 4.658-3.364-.001-6.003-2.434-6.003-6.264zM312.9 786.726v-.207c0-3.777 2.692-6.367 6.005-6.367 2.588 0 5.02 1.193 5.382 4.35h-1.966c-.311-1.969-1.76-2.693-3.416-2.693-2.278 0-3.985 1.811-3.985 4.711v.207c0 3.053 1.656 4.658 4.037 4.658 1.759 0 3.364-1.035 3.571-3.053h1.811c-.259 2.691-2.433 4.658-5.434 4.658-3.364-.001-6.005-2.434-6.005-6.264zM326.306 786.726v-.207c0-3.727 2.381-6.367 5.796-6.367 2.848 0 5.59 1.76 5.59 6.162v.621h-9.368c.104 2.844 1.45 4.396 3.985 4.396 1.916 0 3.054-.725 3.313-2.174h1.967c-.414 2.486-2.484 3.777-5.28 3.777-3.57.055-6.003-2.378-6.003-6.208zm9.369-1.346c-.208-2.588-1.503-3.572-3.573-3.572-2.069 0-3.363 1.398-3.674 3.572h7.247zM340.54 780.36h1.966v1.967c.57-1.139 1.967-2.176 3.986-2.176 2.588 0 4.348 1.4 4.348 5.021v7.609h-1.966v-7.764c0-2.176-.932-3.158-2.899-3.158-1.812 0-3.468 1.137-3.468 3.414v7.508h-1.966v-12.421zM354.979 789.677v-7.66h-1.759v-1.656h1.759v-2.846h1.968v2.846h2.898v1.656h-2.898v7.453c0 1.188.569 1.812 1.552 1.812.518 0 1.035-.053 1.5-.26v1.654c-.517.207-1.086.258-1.656.258-2.277.001-3.364-1.29-3.364-3.257zM362.691 788.226v-7.865h1.967v7.764c0 2.174.932 3.158 2.847 3.158 1.811.102 3.313-1.295 3.416-3.107v-7.8149999999999995h1.967v12.422h-1.967v-1.967c-.569 1.139-1.966 2.174-3.933 2.174-2.434-.001-4.297-1.346-4.297-4.764zM376.717 780.36h1.968v2.225c.775-1.396 1.863-2.379 4.087-2.432v1.863c-2.483.102-4.087.879-4.087 3.984v6.781h-1.968v-12.421zM384.221 786.726v-.207c0-3.727 2.381-6.365 5.798-6.365 2.847 0 5.589 1.758 5.589 6.16v.621h-9.368c.104 2.844 1.45 4.396 3.985 4.396 1.915 0 3.054-.727 3.312-2.174h1.966c-.415 2.486-2.485 3.777-5.279 3.777-3.517.055-6.003-2.378-6.003-6.208zm9.37-1.346c-.207-2.588-1.501-3.572-3.571-3.572-2.071 0-3.365 1.398-3.674 3.572h7.245zM404.822 775.806h2.071v16.977h-2.071v-16.977zM410.981 780.36h1.967v1.967c.569-1.139 1.967-2.174 3.986-2.174 2.587 0 4.347 1.398 4.347 5.021v7.607h-1.966v-7.764c0-2.174-.932-3.158-2.898-3.158-1.812 0-3.468 1.137-3.468 3.414v7.508h-1.967v-12.421zM425.421 789.677v-7.66h-1.76v-1.656h1.76v-2.846h1.966v2.846h2.899v1.656h-2.899v7.453c0 1.188.571 1.812 1.553 1.812.518 0 1.035-.053 1.502-.26v1.654c-.518.207-1.089.258-1.657.258-2.277.001-3.364-1.29-3.364-3.257zM432.306 786.726v-.207c0-3.727 2.38-6.365 5.796-6.365 2.846 0 5.589 1.758 5.589 6.16v.621h-9.315c.103 2.844 1.449 4.396 3.984 4.396 1.916 0 3.053-.727 3.312-2.174h2.019c-.414 2.486-2.483 3.777-5.279 3.777-3.57.055-6.106-2.378-6.106-6.208zm9.366-1.346c-.206-2.588-1.5-3.572-3.571-3.572-2.07 0-3.364 1.398-3.726 3.572h7.297zM446.539 780.36h1.966v2.225c.776-1.396 1.863-2.379 4.089-2.432v1.863c-2.484.102-4.089.879-4.089 3.984v6.781h-1.966v-12.421zM454.198 789.313c0-2.898 3.054-3.83 6.21-3.83h1.76v-.879c0-1.969-.776-2.797-2.64-2.797-1.708 0-2.639.725-2.846 2.227h-1.966c.258-2.846 2.536-3.881 4.917-3.881 2.38 0 4.554.982 4.554 4.451v8.178h-1.966v-1.553c-.88 1.189-2.381 1.863-3.882 1.76-2.33 0-4.141-1.086-4.141-3.676zm7.971-.88v-1.553h-1.708c-2.485 0-4.296.621-4.296 2.434 0 1.291.621 2.07 2.329 2.07 2.07.053 3.675-1.035 3.675-2.951zM466.93 786.726v-.207c0-3.777 2.691-6.365 6.056-6.365 2.589 0 5.021 1.191 5.384 4.348h-1.967c-.311-1.969-1.707-2.693-3.468-2.693-2.278 0-3.986 1.811-3.986 4.711v.207c0 3.053 1.658 4.658 4.037 4.658 1.76 0 3.366-1.035 3.572-3.053h1.812c-.259 2.691-2.433 4.658-5.435 4.658-3.416-.001-6.005-2.434-6.005-6.264zM481.63 789.677v-7.66h-1.76v-1.656h1.76v-2.846h1.965v2.846h2.899v1.656h-2.899v7.453c0 1.188.571 1.812 1.554 1.812.517 0 1.034-.053 1.501-.26v1.654c-.519.207-1.087.258-1.658.258-2.277.001-3.362-1.29-3.362-3.257zM489.133 776.478c0-.725.571-1.293 1.295-1.293.725 0 1.293.568 1.293 1.293s-.568 1.293-1.293 1.293c-.673 0-1.241-.569-1.295-1.293zm.364 3.882h1.966v12.422h-1.966v-12.422zM493.948 780.36h2.122l3.675 10.402 3.622-10.402h2.02l-4.451 12.422h-2.484l-4.504-12.422zM506.576 786.726v-.207c0-3.727 2.381-6.365 5.797-6.365 2.847 0 5.589 1.758 5.589 6.16v.621h-9.367c.103 2.844 1.449 4.396 3.985 4.396 1.915 0 3.053-.727 3.312-2.174h1.967c-.414 2.486-2.485 3.777-5.279 3.777-3.519.055-6.004-2.378-6.004-6.208zm9.368-1.346c-.207-2.588-1.5-3.572-3.571-3.572s-3.364 1.398-3.728 3.572h7.299z"/><g fill="#fff"><path d="M666.067 740.57v4.475h.271c8.036-4.842 16.336-5.227 21.298-5.227 13.392 0 17.945 3.822 19.688 5.227 3.078-1.783 9.772-5.227 21.152-5.227 22.776-.002 22.776 8.986 22.776 12.617v21.168h-18.35v-18.855c0-3.904 0-8.238-9.781-8.238-4.817 0-9.775 1.469-11.512 3.633-1.61 1.852-2.282 3.506-2.282 7.586v15.875h-18.348v-18.107c0-5.609.13-8.986-9.507-8.986-4.824 0-9.774 1.277-11.652 3.186-1.473 1.469-2.418 2.998-2.418 7.855v16.053h-18.338v-33.035h17.003zM795.494 747.885h-13.313v13.234c0 4.676 0 6.205 5.442 6.205 2.583 0 4.868-.301 7.304-.762l.568-.064 1.714 6.719c-6.432 1.195-13.453 1.322-15.453 1.322-6.007 0-13.745-.893-16.604-3.35-2.435-2.033-2.725-3.994-2.725-8.998v-14.307h-9.015v-6.906h9.015v-6.521l19.754-5.129v11.652h13.313v6.905zM640.089 792.281c-7.299-11.01-12.136-24.09-12.136-37.254 0-15.539 6.11-28.211 12.289-37.107h7.373c-5.472 12.135-9.195 22.436-9.195 37.426 0 17.193 6.097 30.443 8.876 36.455.081.086.243.402.243.48h-7.45zM804.873 718.086c7.291 11.016 12.125 24.104 12.125 37.26 0 15.539-6.1 28.205-12.282 37.102h-7.377c5.471-12.145 9.201-22.445 9.201-37.42 0-17.207-6.104-30.439-8.887-36.473-.075-.07-.234-.393-.234-.469h7.454zM651.074 782.176h2.151v.963h.054c.761-.613 2.179-1.127 4.223-1.127 2.016 0 3.431.42 4.006 1.223.49-.377 1.714-1.223 4.357-1.223 4.358 0 4.387 1.836 4.387 2.332v4.762h-2.4v-4.375c0-.668 0-1.699-2.534-1.699-1.031 0-2.258.252-2.832.723-.459.389-.632.807-.632 1.326v4.025h-2.388v-4.51c0-.66-.138-1.564-2.484-1.564-1.28 0-2.479.328-2.914.805-.514.561-.599 1.066-.599 1.67v3.6h-2.397l.002-6.931zM674.284 784.975c.135-.912 1.359-1.994 4.03-1.994 1.718 0 3.077.512 3.568 1.107.274.34.328.629.385.887h-7.983m7.898 1.902c-.3.398-1.037 1.428-3.731 1.428-2.125 0-4.113-.707-4.305-2.367h10.567c.222-3.752-5.198-3.926-6.398-3.926-4.304 0-6.62 1.566-6.62 3.682 0 2.141 2.371 3.576 6.756 3.576 3.486 0 5.474-.939 6.186-2.242l-2.455-.151zM687.852 785.637c0-.504.159-2.656 3.757-2.656 2.914 0 3.867 1.416 3.867 2.768 0 2.379-2.996 2.557-3.759 2.557-1.389-.001-3.865-.488-3.865-2.669m7.57 3.468h2.231v-9.582h-2.395v3.439h-.053c-.736-.549-2.073-.951-3.84-.951-3.542 0-5.968 1.365-5.968 3.625 0 2.223 2.725 3.633 6.079 3.633.515 0 2.612 0 3.895-1.047h.052v.883h-.001zM700.027 782.176h2.398v6.93h-2.398v-6.93m0-2.653h2.398v1.34h-2.398v-1.34zM713.782 786.055c0 .58-.109 1.129-1.061 1.637-1.12.586-2.725.654-3.406.654-2.157 0-2.834-.605-2.834-1.098 0-.938 1.88-1.072 3.354-1.178 1.248-.094 3.021-.27 3.947-.439v.424m-7.11-1.754c.301-.578.679-1.32 3.678-1.32 3.513 0 3.487.975 3.431 1.723-1.362.236-3.948.377-4.304.404-1.554.092-5.556.324-5.556 2.168 0 1.148 1.717 1.994 4.82 1.994 1.525 0 3.188-.174 5.2-1.018.059.172.109.492.491.854h2.509c-.764-.67-.764-1.125-.764-2.9v-1.58c0-1.205 0-2.613-5.476-2.613-5.448 0-6.1 1.523-6.371 2.146l2.342.142zM725.083 783.629h-2.531v2.805c0 .986 0 1.307 1.036 1.307.489 0 .924-.066 1.389-.162l.106-.006.333 1.418c-1.232.25-2.561.279-2.947.279-1.143 0-2.61-.193-3.158-.711-.461-.432-.517-.844-.517-1.902v-3.027h-1.716v-1.455h1.716v-1.377l3.758-1.086v2.463h2.531v1.454zM728.792 785.041c-.029-.908 1.034-1.621 2.803-1.621.574 0 2.702.105 2.782 1.621h-5.585m5.365 1.861c-.19.316-.629.957-2.372.957-2.124 0-3.022-.867-3.076-1.693h9.369c.083-2.053-1.387-4.154-6.698-4.154-4.467 0-6.485 1.799-6.485 3.674 0 .566.215 1.252.845 1.928 1.504 1.578 4.765 1.656 5.989 1.656 4.686 0 5.858-1.631 6.164-2.061l-3.736-.307zM742.517 782.176v.934h.06c1.634-1.02 3.32-1.098 4.327-1.098 2.726 0 3.653.803 4.007 1.098.629-.375 1.992-1.098 4.305-1.098 4.632 0 4.632 1.891 4.632 2.65v4.445h-3.733v-3.959c0-.818 0-1.729-1.991-1.729-.982 0-1.986.303-2.337.766-.333.385-.466.725-.466 1.59v3.332h-3.736v-3.801c0-1.172.03-1.887-1.933-1.887-.979 0-1.984.268-2.369.668-.3.311-.489.629-.489 1.65v3.369h-3.734v-6.932h3.457v.002zM765.349 785.801c0-1.006.356-1.508 1.257-1.943.677-.322 1.497-.393 2.012-.393 1.275 0 2.968.443 2.968 2.164 0 .773-.357 2.23-3.104 2.23-1.745 0-3.133-.654-3.133-2.058m-3.704-3.625v9.566h3.733v-3.438c.542.307 1.824.965 4.109.965 3.138 0 5.943-1.113 5.943-3.561 0-2.49-2.864-3.697-5.913-3.697-.843 0-2.889.146-4.329 1.182h-.064v-1.018h-3.479zM776.599 779.523h3.734v9.582h-3.734zM785.285 785.041c-.024-.908 1.038-1.621 2.813-1.621.566 0 2.691.105 2.772 1.621h-5.585m5.373 1.861c-.193.316-.631.957-2.376.957-2.123 0-3.021-.867-3.075-1.693h9.37c.085-2.053-1.39-4.154-6.697-4.154-4.473 0-6.485 1.799-6.485 3.674 0 .566.219 1.252.845 1.928 1.497 1.578 4.764 1.656 5.989 1.656 4.684 0 5.858-1.631 6.16-2.061l-3.731-.307zM766.592 790.531h-.429v-.234h1.155v.234h-.441v1.123h-.285zM767.5 790.297h.435l.265.928.261-.928h.443v1.357h-.273v-1.068l-.29 1.068h-.279l-.284-1.068h-.006v1.068h-.272z"/></g><path fill="#fff" d="M938.853 727.756h4.177v6.34h-4.177v9.061c0 2.16 1.454 2.674 3.05 2.674.422 0 .8 0 1.316-.045v6.711s-1.033.283-3.005.283c-5.823 0-9.201-2.676-9.201-10v-8.684h-2.395v-6.34h2.395v-5.209h7.84v5.209zM953.688 742.123c.188 2.205 2.3 4.084 5.211 4.084 2.958 0 4.694-1.926 5.162-2.629l5.167 3.99c-.706 1.453-4.086 5.445-10.47 5.445-8.122 0-13.097-5.586-13.097-12.863 0-7.229 4.88-13.004 12.112-13.004 7.839 0 12.111 5.023 12.111 13.426 0 .469 0 .988-.048 1.551h-16.148zm.234-4.977h7.981c-.093-1.973-1.549-3.662-3.992-3.662-2.58 0-3.801 1.924-3.989 3.662zM981.293 736.584c2.159 0 3.848.514 4.741.893v-.893c0-1.504-1.221-2.678-3.757-2.678-2.159 0-4.272.611-6.196 1.551l-2.912-5.258c2.629-1.738 5.962-3.053 10.046-3.053 8.498 0 10.657 4.365 10.657 10v15.258h-6.995l-.424-1.361c-1.267 1.266-3.051 1.971-5.585 1.971-4.835 0-9.155-2.91-9.155-8.262.001-4.93 3.757-8.168 9.58-8.168zm1.595 10.42c1.878 0 3.287-.891 3.287-2.535 0-1.689-1.456-2.627-3.333-2.627-1.879 0-3.286 1.031-3.286 2.627-.001 1.644 1.501 2.535 3.332 2.535zM1019.106 752.402h-7.839v-14.691c0-2.207-1.08-3.521-2.958-3.521-1.831 0-3.003 1.268-3.003 3.521v14.691h-7.841v-24.646h7.653v2.537c.846-1.502 2.816-3.146 6.103-3.146 2.912 0 5.07 1.223 6.384 3.24 1.502-1.926 3.803-3.24 6.995-3.24 5.68 0 8.355 3.662 8.355 8.873v16.383h-7.839v-14.691c0-2.207-1.127-3.521-3.004-3.521-1.831 0-3.004 1.406-3.004 3.521v14.69h-.002zM938.59 790.986h-7.323v-33.939h7.839v11.172c.517-.611 2.816-2.49 6.572-2.49 7.137 0 11.643 5.307 11.643 12.959 0 7.559-4.976 12.908-12.065 12.908-3.616 0-5.961-1.736-6.666-2.533v1.923zm5.586-6.242c3.145 0 5.305-2.348 5.305-6.01 0-3.615-2.111-6.102-5.305-6.102-3.098 0-5.305 2.205-5.305 6.102.001 3.286 1.927 6.01 5.305 6.01zM967.748 781.035c0 2.299 1.36 3.52 3.24 3.52 2.159 0 3.379-1.549 3.379-3.52v-14.695h7.839v24.646h-7.653v-2.535c-.939 1.455-3.098 3.145-6.196 3.145-7.699 0-8.45-6.572-8.45-11.596v-13.66h7.84v14.695h.001zM986.034 757.047h7.839v33.939h-7.839v-33.939zM997.463 757.047h7.841v33.939h-7.841v-33.939zM1026.472 789.107c-.517.613-2.814 2.488-6.572 2.488-7.135 0-11.643-5.303-11.643-12.955 0-7.559 4.978-12.91 12.065-12.91 3.614 0 5.962 1.738 6.666 2.533v-1.924h7.325v21.689c0 9.105-6.339 11.971-13.66 11.971-3.475 0-6.902-.984-9.108-2.113l2.3-6.008c.705.328 3.473 1.502 6.808 1.502 2.909 0 5.821-.656 5.821-3.66v-.613h-.002zm-5.116-16.474c-3.146 0-5.258 2.299-5.258 5.959 0 3.617 2.112 6.105 5.305 6.105 3.097 0 5.306-2.207 5.306-6.105-.001-3.285-1.973-5.959-5.353-5.959zM1037.43 760.613c0-2.488 1.88-4.271 4.367-4.271s4.413 1.783 4.413 4.271c0 2.441-1.926 4.227-4.413 4.227s-4.367-1.785-4.367-4.227zm8.356 30.373h-7.839v-24.646h7.839v24.646zM1058.792 766.34h4.177v6.338h-4.177v9.062c0 2.156 1.454 2.674 3.05 2.674.422 0 .798 0 1.314-.047v6.713s-1.033.283-3.004.283c-5.822 0-9.202-2.678-9.202-10.002v-8.684h-2.395v-6.338h2.395v-5.209h7.841v5.21h.001zM1093.292 757.596c.239-.668-.053-1.23-4.6-7.178-2.4-3.143-3.253-4.65-3.253-4.65s1.389.242 6.504-2.854c5.378-3.258 4.282-9.264 4.073-12.746-.154-2.609 1.937-6.359 1.937-6.359s-1.861.094-3.375 1.188c-4.268 3.078-5.453 10.943-8.719 10.832-1.35-.045-1.863-.689-2.656-1.822.414-.264.794-.58 1.112-.969.906-1.109 1.275-2.91 1.048-4.307-.291-1.789-1.83-3.295-3.588-3.629.65-1.729.106-3.592-1.371-4.689-.271-.201-1.107-.5-1.168-.785-.086-.4-.274-.771-.52-1.098-.549-.719-1.348-1.223-2.138-1.645-.427-.227-.865-.432-1.308-.631-.398-.18-.914-.307-1.194-.666-.513-.652.731-1.17 1.167-1.365.627-.281 1.31-.531 1.704-1.135.326-.504.361-1.121.446-1.697-.568.689-1.033 1.086-2.114 1.096-1.129.008-2.221-.168-3.354-.014-.928.129-1.889.43-2.569 1.104-.782.779-1.095 2.025-.952 3.096-1.192-.029-2.125.971-2.084 2.158-1.377-.164-3.122-.137-4.101 1.016-.273.322-.458.711-.555 1.121-.057.238.019.547-.254.566-.242.014-.481.043-.722.09-1.336.246-2.529.938-3.29 1.996-3.346-.705-4.326-1.857-4.308-3.094.021-1.623 3.749-4.605 6.193-6.906 8.443-7.949 6.438-12.656 5.373-14.199-.876 1.754-2.123 4.148-5.153 6.742-3.836 3.291-8.275 4.625-14.086 7.852-4.789 2.66-7.833 7.684-6.8 13.311.987 5.371 9.121 7.662 9.121 7.662s-6.851 3.168-10.058 7.256c-2.088 2.66-3.895 4.934-.63 5.305l9.481-.863s.17 2.451 2.247 5.713c2.053 3.221 5.774 5.027 9.821 5.627 6.786 1.002 8.637 4.168 14.788 7.891 5.04 3.051 8.288 2.977 11.218 1.355 11.527 7.228 15.297-5.629 8.687-9.676zm-42.574-18.77c-1.282 1.291-4.101 4.297-7.483 5.199-3.383.904-4.877.275-4.877.275s1.849-2.76 4.219-4.682c2.369-1.922 7.034-4.127 7.034-4.127s1.447.428 3.118.852c4.598 1.171-.172 2.483-2.011 2.483zm5.552-11.752c-.042.604-.415 2.008-.926 3.486-2.482-1.045-8.287-3.371-8.702-6.094-1.046-6.871 7.504-11.26 11.989-14.678-1.706 1.139-2.726 1.59-3.926 2.137-13.129 5.994-14.857 11.312-14.476 15.184.03.309.093.619.181.922-.274-.502-.467-1.049-.534-1.645-.267-2.371-.142-5.59 3.947-9.451 1.868-1.764 4.144-3.045 6.512-4.021 9.212-3.793 12.699-8.076 14.267-11.246.438 1.982-.188 4.359-4.336 9.352-2.653 3.191-10.432 6.904-8.854 10.91.467 1.189 1.424 1.832 3.702 2.693.997.471 1.226 1.439 1.156 2.451zm31.387 9.811c3.442-2.242 3.647-9.486 8.53-11.561-1.859 2.834-1.239 5.473-1.114 7.156.212 2.85-.985 6.109-2.399 7.266 1.04-3.752.75-6.957.75-6.957s-.719 6.596-7.702 5.916c-1.484-.145-2.317-.922-2.317-1.688 2.137.813 2.786.823 4.252-.132zm-29.643-10.897c.181-3.848 4.201-3.65 4.201-3.65s.761 1.393 2.378 2.104c1.508.662 4.104.941 4.104.941s-6.321-1.699-5.67-4.318c.411-1.646 2.47-1.531 3.709-1.34 1.253.195 2.209.51 5.23.904-2.416-.373-4.527-1.348-4.308-2.449.244-1.219 1.658-1.084 3.114-.439-.881-.4-1.605-1.1-.912-2.986.761-2.076 4.485-1.375 4.485-1.375-1.295.695-1.68 1.121-1.7 1.551-.02.434.21 1.219 2.162 2.098 1.95.881 3.141 1.641 3.135 2.562-.006 1.467-2.717 1.492-2.717 1.492s.967.09 1.767-.096c2.68-.623 3.476.488 3.725 1.76.743 3.826-7.271 3.172-7.271 3.172s1.771.396 3.994.156c1.975-.211 3.97-.984 5.438.422 1.124 1.072 1.275 2.105 1.008 3.512-.265 1.404-.774 3.492-7.87 3.404 0 0-3.399.143-5.872-.24-2.476-.384-12.363-2.185-12.13-7.185zm11.901 19.008c-2.354-.33-3.4-1.693-3.793-3.553-.269-1.264-.061-2.033.619-3.191 2.375 1.641 4.731 4.232 6.4 6.275-.937.594-1.839.661-3.226.469zm4.089-3.725c-3.046-3.945-5.875-5.928-7.794-6.982l.428.107c2.637.645 5.278.955 7.994.955 1.868 0 3.77.025 5.613-.303.331-.062.666-.135.998-.225 1.467 2.713 1.848 5.102 1.848 5.102s-1.796 1.891-.954 3.234c1.024 1.627 5.673 7.795 8.398 11.334-1.557-.201-3.078-.045-4.455.496-2.033-2.366-9.11-9.876-12.076-13.718zm9.007 18.489c-.154.254-.23.543-.276.836-.013.078-.106.848-.022.867-1.196-.312-1.481-5.125 5.972-6.193 3.271-.471 3.688 1.889 3.773 1.988-.461.074-.834.258-1.181.811-.206.334-.055.9-.088 1.273-.097 1.064-1.087 1.65-2.02 1.936-.892.271-2.041.174-2.839-.328-.598-.377-.423-1.07-.626-1.645-.247-.707-.988-.586-1.562-.402-.469.152-.876.427-1.131.857zm12.404 4.939c-.715 2.088-2.966 3.252-5.1 3.109-2.82-.191-5.558-2.008-6.257-4.846-.15-.645-.28-1.988.285-2.465.466-.395.808.242.895.613.159.502.377.951.627 1.414l-.011-.035c1.112 1.531 2.806 2.514 4.72 2.256l.359-.084.35-.115c.274-.113.534-.262.769-.447.411-.318.734-.746.933-1.227.229-.557.238-1.379.224-1.65-.037-.768-.664-1.936-.736-2.066-.104-.166-.009-.408.184-.451.197-.047.464.176.616.281 1.812 1.217 2.873 3.573 2.142 5.713z"/></svg>