<svg xmlns="http://www.w3.org/2000/svg" width="800" height="800" viewBox="0 0 800 800"><path fill="#fff" d="M794.125 399.625c0-217.673-176.457-394.125-394.125-394.125-217.673 0-394.125 176.453-394.125 394.125 0 217.667 176.452 394.125 394.125 394.125 217.668 0 394.125-176.458 394.125-394.125z"/><path fill="#EB1F46" d="M400 3.962c-218.086 0-394.873 176.787-394.873 394.872 0 157.383 92.082 293.244 225.3 356.692.639-2.76 1.279-5.568 1.924-8.491h.006c13.087-59.302 8.982-118.042 8.672-122.179l-1.674-.405v-45.566h19.154v-147.161l-6.124-2.189v-40.365h16.109v20.499h11.756l-.012-20.499h15.407v20.499h9.944v-20.499h16.003v20.499h10.527v-20.499h15.324v40.364l-5.142 2.215h-.179v147.136h18.507v-147.161h-.699l-4.605-1.565v-17.955h5.955c.011-15.998 10.79-29.654 24.405-35.967h-.578s-.937-16.29 13.42-18.861v-17.542h-11.547v-7.491h11.547v-9.583h7.163v9.583h11.545v7.491h-11.545v17.542c14.355 2.571 13.418 18.861 13.418 18.861h-.945c13.617 6.313 24.395 19.97 24.408 35.967h6.188v17.955l-4.607 1.565h-.92v147.161h18.605v-147.136h-.184l-5.139-2.215v-40.364h15.32v20.5h10.525v-20.5h16.006v20.5h9.949v-20.5h15.402l-.016 20.5h11.76v-20.5h16.109v40.364l-6.121 2.189v147.161h19.156v45.566l-1.678.408c-.314 4.145-4.418 62.879 8.674 122.176.51 2.313 1.018 4.562 1.525 6.771 131.299-64.156 221.744-198.995 221.744-354.973.004-218.083-176.787-394.87-394.869-394.87zm-76.625 361.095h-15.177l-7.587 13.143-7.588-13.143h-15.173l7.584-13.128-7.584-13.133h15.174l7.588-13.132 7.587 13.132h15.177l-7.587 13.133 7.586 13.128zm202.736 0h-15.17l-7.586 13.143-7.596-13.143h-15.178l7.588-13.128-7.588-13.134h15.178l7.596-13.132 7.586 13.132h15.17l-7.586 13.134 7.586 13.128z"/><g fill="#fff"><path d="M82.287 393.773l7.048 1.34c1.752.333 3.021 1.033 3.81 2.092.789 1.059 1.165 2.717 1.131 4.98l-.048 3.241 13.2 2.309.083-5.558c.025-1.613.556-2.752 1.594-3.424s2.788-.799 5.248-.387l5.371.906-.152 10.186 22.095 3.932-.11 7.411c-.011.719-.208 1.395-.591 2.022-.383.632-.896 1.154-1.537 1.574-.643.42-1.376.707-2.201.868-.824.157-1.704.146-2.634-.04l-15.215-2.698-.126 8.492 16.055 2.76c1.08.187 2.002.52 2.76.993.761.475 1.378 1.034 1.854 1.672.477.643.821 1.351 1.034 2.129.213.773.313 1.573.3 2.396l-.105 7.1-22.093-3.932-.067 4.531c-.025 1.61-.555 2.752-1.594 3.425-1.039.667-2.79.799-5.25.382l-5.371-.901.137-9.159-13.202-2.308-.153 10.24-7.045-1.339c-1.715-.336-2.976-1.03-3.783-2.09-.806-1.058-1.194-2.719-1.159-4.986l.051-3.497-16.389-2.921c-1.752-.332-3.114-1.136-4.087-2.402-.972-1.267-1.445-2.724-1.42-4.37l.108-7.305 21.983 3.928.126-8.539-21.981-3.932.105-7.098c.012-.825.173-1.565.482-2.231.31-.663.719-1.226 1.23-1.683.512-.456 1.116-.78 1.809-.974.696-.197 1.453-.219 2.273-.073l16.277 2.921.149-9.983zm11.746 24.724l-.128 8.54 13.201 2.307.128-8.539-13.201-2.308zM132.927 333.914c.087-.403.257-.787.509-1.154.251-.367.618-.69 1.101-.971l9.194-5.055c3.557 3.864 5.921 8.251 7.089 13.158 1.171 4.907 1.093 10.394-.229 16.461-1.211 5.564-3.331 10.325-6.353 14.284-3.025 3.958-6.688 7.074-10.992 9.352-4.302 2.271-9.125 3.688-14.47 4.243-5.343.558-10.937.201-16.782-1.074-5.953-1.296-11.229-3.376-15.828-6.238-4.6-2.863-8.357-6.298-11.272-10.304-2.915-4.007-4.888-8.473-5.918-13.402-1.029-4.93-.958-10.092.218-15.49.599-2.748 1.429-5.279 2.488-7.593 1.059-2.315 2.284-4.427 3.675-6.336 1.393-1.91 2.938-3.607 4.64-5.099 1.704-1.489 3.47-2.754 5.304-3.794l7.134 7.557c.431.482.803 1.018 1.111 1.612.312.595.369 1.345.172 2.249-.132.604-.402 1.142-.812 1.615-.409.473-.889.964-1.44 1.477-.551.511-1.151 1.073-1.801 1.686-.652.613-1.294 1.369-1.93 2.266-.635.898-1.243 1.977-1.824 3.236-.581 1.261-1.063 2.78-1.451 4.556-.613 2.814-.608 5.513.017 8.088.624 2.576 1.84 4.947 3.643 7.114 1.805 2.167 4.188 4.054 7.146 5.665 2.959 1.609 6.466 2.856 10.521 3.74 4.09.891 7.836 1.172 11.237.842 3.4-.329 6.38-1.138 8.935-2.424 2.557-1.288 4.658-2.979 6.302-5.079 1.642-2.099 2.756-4.49 3.34-7.172.335-1.542.56-2.968.673-4.277.113-1.311.099-2.56-.043-3.75-.142-1.19-.427-2.34-.854-3.452-.427-1.111-1.026-2.276-1.792-3.498-.277-.482-.484-.982-.618-1.504-.136-.521-.149-1.034-.04-1.535zM152.816 240.937c5.296 2.617 9.807 5.892 13.535 9.82 3.73 3.93 6.525 8.249 8.389 12.958 1.862 4.709 2.688 9.682 2.477 14.917-.211 5.232-1.608 10.464-4.193 15.692-2.586 5.228-5.898 9.522-9.936 12.882-4.04 3.362-8.499 5.738-13.38 7.134-4.881 1.394-10.015 1.803-15.401 1.227-5.385-.578-10.726-2.177-16.021-4.794-5.294-2.618-9.806-5.892-13.535-9.822-3.729-3.929-6.514-8.251-8.351-12.968-1.839-4.717-2.649-9.701-2.43-14.95.22-5.25 1.621-10.489 4.206-15.716 2.585-5.228 5.902-9.511 9.949-12.847 4.049-3.337 8.5-5.699 13.358-7.088 4.856-1.388 9.978-1.792 15.363-1.215 5.385.578 10.709 2.168 15.97 4.77zm-7.891 15.959c-3.619-1.789-7.092-2.97-10.416-3.542-3.324-.574-6.391-.55-9.2.071-2.809.621-5.328 1.835-7.556 3.642-2.229 1.807-4.08 4.202-5.554 7.185-1.492 3.014-2.28 5.962-2.372 8.845-.092 2.882.468 5.627 1.683 8.236 1.212 2.61 3.054 5.062 5.527 7.354 2.473 2.296 5.52 4.337 9.138 6.125 3.652 1.808 7.143 2.996 10.467 3.569 3.324.571 6.391.547 9.2-.073 2.809-.621 5.323-1.846 7.54-3.677 2.22-1.831 4.075-4.251 5.564-7.267 1.475-2.983 2.262-5.903 2.362-8.762.1-2.859-.457-5.594-1.669-8.202-1.211-2.609-3.055-5.06-5.527-7.354-2.471-2.293-5.534-4.343-9.187-6.15zM210.463 174.846c4.366 3.978 7.766 8.338 10.196 13.081 2.43 4.745 3.85 9.598 4.257 14.563.409 4.965-.246 9.903-1.962 14.813-1.716 4.911-4.539 9.519-8.465 13.831l-19.612 21.533-60.404-55.015 19.612-21.533c3.926-4.312 8.262-7.544 13.004-9.698 4.744-2.152 9.598-3.264 14.566-3.334 4.967-.069 9.925.886 14.875 2.864 4.949 1.978 9.594 4.943 13.933 8.895zm-11.989 13.162c-2.985-2.717-6.004-4.817-9.054-6.298-3.052-1.478-6.02-2.313-8.904-2.506-2.886-.191-5.655.269-8.31 1.377-2.654 1.109-5.102 2.896-7.341 5.354l-7.832 8.598 38.847 35.381 7.832-8.598c2.239-2.46 3.789-5.062 4.646-7.809.857-2.746 1.057-5.545.599-8.401-.46-2.853-1.568-5.732-3.327-8.632-1.759-2.898-4.145-5.72-7.156-8.466zM226.346 132.212l10.425 15.961 19.732-12.887 7.667 11.737-19.732 12.887 10.642 16.292 25.762-16.829 7.973 12.207-40.41 26.396-44.681-68.404 40.411-26.395 7.974 12.206-25.763 16.829zM295.406 81.633c4.991-1.729 9.501-2.568 13.53-2.521 4.029.05 7.595.803 10.695 2.26 3.099 1.458 5.734 3.534 7.9 6.225 2.167 2.692 3.868 5.821 5.104 9.39 1.335 3.85 1.99 7.579 1.969 11.186-.021 3.609-.801 6.965-2.34 10.069-1.539 3.105-3.875 5.921-7.011 8.452-3.136 2.53-7.15 4.642-12.046 6.338l-8.557 2.964 8.937 25.806-16.434 5.692-26.741-77.205 24.994-8.656zm13.123 37.887c4.279-1.482 6.971-3.663 8.082-6.54 1.109-2.876.972-6.311-.409-10.302-.611-1.766-1.411-3.29-2.4-4.569-.987-1.281-2.156-2.27-3.507-2.971-1.349-.699-2.875-1.069-4.578-1.114-1.703-.042-3.593.294-5.666 1.014l-8.559 2.964 8.479 24.481 8.558-2.963zM370.115 80.242l1.526 19.004 23.493-1.888 1.124 13.974-23.493 1.887 1.557 19.397 30.674-2.464 1.168 14.534-48.114 3.865-6.541-81.443 48.112-3.864 1.168 14.534-30.674 2.464zM495.188 77.168l-16.224 80.075-8.878-1.798c-1.312-.266-2.366-.717-3.162-1.355-.8-.639-1.522-1.614-2.165-2.928l-24.972-54.78c-.153 1.456-.343 2.858-.562 4.206-.219 1.348-.449 2.608-.687 3.78l-8.695 42.924-15.031-3.046 16.225-80.076 8.978 1.818c.738.15 1.354.314 1.844.489.489.175.916.405 1.277.688.361.283.69.645.989 1.086.293.441.613 1.021.96 1.74l25.206 55.171c.143-1.573.328-3.088.555-4.551.226-1.46.467-2.831.729-4.114l8.584-42.376 15.029 3.047zM569.465 159.495c-2.903 5.143-6.397 9.43-10.479 12.856-4.082 3.428-8.496 5.894-13.245 7.398-4.75 1.504-9.708 1.968-14.877 1.391-5.17-.579-10.295-2.302-15.374-5.168l-25.361-14.316 40.158-71.152 25.365 14.318c5.079 2.865 9.197 6.37 12.354 10.515 3.154 4.141 5.323 8.628 6.499 13.454 1.172 4.829 1.348 9.874.522 15.138-.824 5.266-2.679 10.454-5.562 15.566zm-15.506-8.752c1.986-3.518 3.359-6.927 4.122-10.231.759-3.304.913-6.383.456-9.24-.456-2.853-1.522-5.451-3.194-7.791-1.672-2.34-3.961-4.329-6.855-5.964l-10.129-5.717-25.829 45.759 10.128 5.715c2.898 1.635 5.783 2.566 8.648 2.789 2.865.225 5.641-.206 8.324-1.29 2.679-1.084 5.234-2.808 7.67-5.168 2.435-2.359 4.654-5.314 6.659-8.862zM600.931 247.175l-9.515-9.552c-1.066-1.07-1.653-2.204-1.767-3.399-.109-1.197.088-2.39.599-3.574l6.966-13.187-20.115-20.196-13.217 6.917c-1.008.471-2.154.657-3.438.559-1.289-.101-2.439-.66-3.458-1.682l-9.587-9.623 78.369-37.1 12.566 12.613-37.403 78.224zm2.624-41.621l10.952-20.712c.644-1.367 1.439-2.935 2.392-4.708.954-1.772 2.02-3.656 3.194-5.652-1.978 1.245-3.861 2.347-5.65 3.305-1.79.959-3.367 1.758-4.735 2.396l-20.642 10.826 14.489 14.545zM643.335 259.282l-26.301 16.53-9.255-14.725 26.3-16.533 28.415-49.949 8.164 12.985c.803 1.278 1.107 2.489.926 3.638-.182 1.15-.622 2.289-1.329 3.419l-14.49 21.627c-1.104 1.75-2.157 3.362-3.149 4.837-.994 1.476-2.008 2.863-3.049 4.164 1.636-.42 3.322-.78 5.054-1.078 1.733-.298 3.61-.559 5.637-.778l25.716-3.764c.539-.055 1.105-.068 1.702-.035.594.031 1.179.139 1.759.323.581.183 1.132.463 1.657.843.522.378.979.873 1.362 1.482l8.214 13.069-57.333 3.945zM730.765 340.366l-77.788 24.988-5.35-16.657 32.887-10.566-9.314-29.003-32.889 10.565-5.353-16.659 77.788-24.988 5.353 16.657-32.514 10.445 9.316 29.003 32.514-10.444 5.35 16.659zM740.274 439.11l-81.592 4.3-.92-17.473 34.497-1.818-1.606-30.418-34.493 1.818-.921-17.473 81.59-4.301.92 17.473-34.103 1.796 1.603 30.423 34.102-1.8.923 17.473z"/></g><path fill="#E92247" d="M412.926 630.201c-9.711 7.122-10.682 15.859-10.682 15.859-.883-1.088-11.262-10.621-6.408-40.4-27.877 23.726-20.18 63.458-20.18 63.458s-7.461-12.968-19.388-14.475c11.003 25.113-9.471 46.909-9.471 70.109 0 29.383 23.82 53.203 53.2 53.203 29.382 0 53.203-23.82 53.203-53.203.001-43.932-47.655-60.762-40.274-94.551z"/><path fill="#fff" d="M399.998 677.913c-25.869 0-46.84 20.974-46.84 46.84 0 25.874 20.97 46.848 46.84 46.848 25.872 0 46.844-20.974 46.844-46.848 0-25.866-20.973-46.84-46.844-46.84m0 85.988c-21.586 0-39.146-17.561-39.146-39.148 0-21.58 17.561-39.146 39.146-39.146 21.586 0 39.149 17.566 39.149 39.146-.001 21.588-17.563 39.148-39.149 39.148"/><path fill="#fff" d="M428.944 715.604l-.025-.105-.044-.209-.037-.115-.065-.187-.055-.122-.088-.163-.068-.117-.104-.149-.087-.106-.124-.139-.095-.099-.143-.116-.113-.084-.043-.033-26.471-17.644c-.838-.559-1.928-.559-2.765 0l-26.473 17.644-.042.033-.113.084-.139.116-.1.099-.124.139-.085.106-.104.149-.072.117-.085.163-.055.122-.065.187-.039.115-.044.209-.02.105-.021.325v17.652l.021.324.02.105.044.208.039.121.065.186.055.121.085.164.072.113.104.149.085.109.124.135.1.095.139.121.113.084.042.034 26.473 17.647c.419.277.9.419 1.381.419s.961-.142 1.384-.419l26.471-17.647.043-.034.113-.084.143-.121.095-.095.124-.135.087-.109.104-.149.068-.113.088-.164.055-.121.065-.186.037-.121.044-.208.025-.105.019-.324v-17.651l-.019-.326m-26.454-12.672l19.503 13.002-8.711 5.83-10.792-7.222v-11.61zm-4.979 0v11.61l-10.79 7.222-8.714-5.83 19.504-13.002zm-21.494 17.66l6.227 4.161-6.227 4.17v-8.331zm21.494 25.989l-19.504-13.004 8.714-5.827 10.79 7.222v11.609zm2.488-15.938l-8.805-5.89 8.805-5.885 8.804 5.885-8.804 5.89zm2.491 15.938v-11.609l10.792-7.222 8.711 5.827-19.503 13.004zm21.491-17.658l-6.224-4.17 6.224-4.161v8.331z"/></svg>