<svg xmlns="http://www.w3.org/2000/svg" width="800" height="800" viewBox="0 0 800 800"><path fill="#3A3A3A" d="M794.125 400c0-217.673-176.457-394.125-394.125-394.125-217.673 0-394.125 176.453-394.125 394.125 0 217.667 176.452 394.125 394.125 394.125 217.668 0 394.125-176.458 394.125-394.125z"/><g><path fill="#E55C2C" d="M432.616 220.724c-29.714 34.514-25.846 67.534-25.846 67.534-4.181-3.256-50.543-29.541-58.026-143.399-82.506 111.164-20.299 251.005-20.299 251.005s-38.538-41.426-83.763-36.82c61.928 83.161 5.062 180.909 24.823 266.392 25.028 108.262 133.083 175.743 241.336 150.718 108.266-25.029 175.741-133.09 150.712-241.354-37.421-161.873-227.352-183.289-228.937-314.076z"/><path fill="#3A3A3A" d="M425.623 407.536c-95.315 22.035-154.718 117.178-132.686 212.483 22.039 95.335 117.166 154.753 212.49 132.715 95.323-22.036 154.733-117.178 132.694-212.515-22.031-95.307-117.17-154.72-212.498-132.683m73.245 316.831c-79.533 18.387-159.195-31.358-177.584-110.9-18.38-79.516 31.36-159.198 110.894-177.584 79.537-18.387 159.209 31.379 177.589 110.891 18.392 79.542-31.362 159.206-110.899 177.593"/><path fill="#3A3A3A" d="M564.386 521.757l-.184-.369c-.104-.248-.2-.495-.341-.731l-.234-.393c-.136-.226-.264-.429-.398-.631l-.307-.403c-.138-.177-.295-.354-.462-.527l-.353-.375-.508-.46-.412-.319c-.172-.14-.376-.279-.574-.404-.138-.081-.3-.185-.433-.281l-.626-.309-.487-.213-.188-.086-112.562-42.462c-3.563-1.343-7.579-.416-10.187 2.354l-82.512 87.559-.127.16-.345.405-.411.546-.284.45c-.114.194-.232.41-.338.615-.083.147-.154.304-.223.464-.097.206-.182.423-.258.639l-.167.493c-.073.215-.126.456-.174.677l-.098.495c-.041.243-.059.479-.082.742l-.045.457.016.808.018.406c.043.404.104.813.197 1.218l15.036 65.039c.092.396.219.801.356 1.175l.161.376c.117.255.219.502.341.728l.247.413c.132.209.255.435.398.629l.305.398c.141.183.291.354.454.532l.363.357c.167.172.336.328.512.461.134.124.267.236.405.329l.571.392c.151.093.295.192.448.265.205.126.414.229.614.328.168.071.334.165.489.212l.183.091 112.574 42.476c1.779.663 3.676.774 5.445.365 1.774-.408 3.419-1.34 4.742-2.722l82.501-87.572.129-.162.347-.405c.145-.179.298-.365.422-.566l.269-.432c.125-.195.248-.398.341-.604l.228-.476c.084-.192.18-.409.254-.638l.155-.478c.08-.213.14-.45.185-.679.027-.18.061-.34.099-.492l.081-.739.034-.479c.024-.256.007-.525-.015-.804l.004-.409c-.062-.396-.116-.813-.208-1.211l-15.036-65.041c-.093-.404-.225-.787-.345-1.182m-108.268-24.162l82.935 31.294-27.129 28.901-45.916-17.414-9.89-42.781zm-18.347 4.241l9.89 42.78-33.604 35.8-37.074-14.059 60.788-64.521zm-64.154 83.381l26.486 10.028-19.39 20.666-7.096-30.694zm101.334 77.452l-82.939-31.303 27.143-28.892 45.907 17.416 9.889 42.779zm-4.406-60.849l-37.461-14.201 27.431-29.182 37.451 14.185-27.421 29.198zm22.754 56.606l-9.891-42.774 33.616-35.804 37.058 14.052-60.783 64.526zm64.145-83.369l-26.482-10.063 19.386-20.635 7.096 30.698z"/></g><g fill="#EAEAEA"><path d="M66.735 347.131l5.946 1.601c1.478.4 2.524 1.112 3.138 2.137.613 1.024.84 2.588.683 4.695l-.226 3.016 11.149 2.808.387-5.169c.112-1.5.631-2.535 1.557-3.108.925-.573 2.428-.605 4.508-.097l4.538 1.111-.709 9.478 18.656 4.765-.516 6.893c-.05.67-.257 1.288-.62 1.855s-.831 1.028-1.404 1.387c-.572.358-1.215.591-1.93.698-.713.107-1.463.051-2.25-.169l-12.848-3.272-.591 7.898 13.562 3.374c.913.23 1.681.583 2.303 1.063.623.479 1.119 1.031 1.489 1.652.371.622.625 1.299.763 2.031.137.732.177 1.48.121 2.247l-.495 6.605-18.656-4.765-.315 4.212c-.112 1.501-.63 2.536-1.557 3.108-.925.573-2.428.606-4.508.097l-4.538-1.11.638-8.521-11.149-2.807-.713 9.524-5.944-1.599c-1.446-.397-2.484-1.108-3.114-2.135-.629-1.026-.865-2.592-.708-4.699l.243-3.254-13.838-3.538c-1.478-.4-2.597-1.213-3.355-2.441-.758-1.228-1.08-2.608-.966-4.14l.509-6.796 18.561 4.759.595-7.946-18.561-4.758.494-6.605c.057-.766.237-1.451.539-2.054.303-.603.685-1.104 1.148-1.503.463-.398.997-.67 1.601-.818.605-.146 1.254-.13 1.946.05l13.743 3.531.694-9.291zm8.631 23.607l-.595 7.945 11.149 2.808.595-7.944-11.149-2.809zM117.31 287.768c.114-.366.299-.711.551-1.035.253-.323.6-.6 1.041-.83l8.385-4.107c2.666 3.79 4.257 7.989 4.772 12.595.515 4.607-.096 9.673-1.833 15.198-1.593 5.067-3.882 9.338-6.869 12.81-2.986 3.473-6.437 6.128-10.352 7.967-3.915 1.839-8.192 2.852-12.829 3.038-4.638.187-9.398-.488-14.283-2.023-4.975-1.563-9.293-3.809-12.951-6.737-3.659-2.928-6.54-6.332-8.641-10.212-2.102-3.881-3.348-8.129-3.742-12.748-.393-4.618.182-9.385 1.726-14.3.787-2.503 1.75-4.792 2.887-6.867 1.139-2.073 2.399-3.951 3.782-5.628 1.382-1.679 2.878-3.154 4.485-4.427 1.607-1.272 3.248-2.333 4.924-3.182l5.366 7.422c.322.471.587.989.794 1.557.207.568.181 1.264-.078 2.089-.173.549-.458 1.031-.856 1.441-.397.413-.858.837-1.382 1.276-.523.44-1.095.922-1.713 1.449-.618.527-1.244 1.186-1.878 1.976-.634.791-1.262 1.75-1.886 2.878-.624 1.13-1.189 2.503-1.698 4.122-.806 2.564-1.069 5.056-.79 7.475.28 2.418 1.086 4.685 2.418 6.797s3.187 4.004 5.563 5.673c2.377 1.669 5.259 3.037 8.648 4.102 3.419 1.074 6.603 1.563 9.552 1.467 2.948-.096 5.583-.661 7.902-1.692 2.32-1.032 4.289-2.468 5.907-4.308 1.618-1.838 2.811-3.979 3.579-6.422.441-1.403.775-2.708 1.002-3.912.227-1.203.339-2.358.334-3.467-.003-1.107-.133-2.188-.39-3.242-.255-1.054-.652-2.167-1.188-3.341-.19-.462-.317-.938-.381-1.429-.062-.491-.022-.965.122-1.423zM148.916 198.086c4.271 2.707 7.777 5.963 10.518 9.766 2.742 3.803 4.623 7.903 5.644 12.301 1.02 4.397 1.105 8.97.255 13.716-.849 4.747-2.73 9.418-5.643 14.014-2.913 4.594-6.338 8.295-10.277 11.102-3.939 2.808-8.12 4.694-12.54 5.663-4.421.968-8.936 1.022-13.546.166-4.609-.857-9.048-2.64-13.319-5.347-4.271-2.707-7.777-5.962-10.519-9.766-2.742-3.802-4.612-7.905-5.61-12.308-.998-4.402-1.068-8.982-.21-13.744.858-4.759 2.743-9.437 5.656-14.032 2.913-4.595 6.34-8.286 10.285-11.071 3.944-2.785 8.116-4.658 12.514-5.621 4.399-.963 8.903-1.014 13.513-.158 4.609.856 9.036 2.63 13.279 5.319zm-8.893 14.027c-2.919-1.85-5.788-3.137-8.605-3.863-2.817-.725-5.487-.892-8.008-.501-2.521.391-4.865 1.34-7.032 2.845-2.167 1.506-4.081 3.57-5.743 6.192-1.679 2.649-2.741 5.28-3.187 7.896-.446 2.616-.308 5.147.414 7.593.722 2.448 2.012 4.792 3.87 7.03 1.859 2.239 4.247 4.283 7.166 6.133 2.946 1.868 5.828 3.164 8.646 3.889 2.817.726 5.487.893 8.008.501 2.521-.392 4.863-1.35 7.025-2.879 2.162-1.527 4.082-3.615 5.761-6.264 1.662-2.622 2.718-5.229 3.169-7.823.45-2.593.315-5.114-.407-7.561s-2.012-4.789-3.87-7.029c-1.858-2.238-4.26-4.291-7.207-6.159zM213.104 137.831c3.353 3.785 5.792 7.854 7.319 12.208 1.527 4.354 2.14 8.75 1.837 13.186-.303 4.436-1.547 8.787-3.732 13.052-2.185 4.266-5.314 8.202-9.386 11.808l-20.337 18.015-46.371-52.353 20.337-18.014c4.073-3.607 8.363-6.23 12.872-7.874 4.509-1.643 8.979-2.353 13.407-2.129 4.43.223 8.713 1.354 12.852 3.396 4.137 2.042 7.872 4.944 11.202 8.705zm-12.432 11.01c-2.292-2.587-4.696-4.625-7.212-6.115-2.517-1.489-5.046-2.401-7.587-2.737-2.541-.336-5.066-.086-7.577.748-2.51.834-4.927 2.28-7.25 4.338l-8.121 7.193 29.821 33.668 8.12-7.193c2.323-2.057 4.051-4.283 5.182-6.674 1.131-2.389 1.684-4.868 1.657-7.431-.026-2.563-.626-5.184-1.802-7.862-1.174-2.679-2.918-5.323-5.231-7.935zM237.778 98.102l7.543 14.473 19.495-10.163 5.546 10.642-19.495 10.162 7.698 14.77 25.454-13.267 5.769 11.066-39.926 20.811-32.325-62.018 39.926-20.81 5.768 11.066-25.453 13.268zM310.977 56.196c4.769-1.244 9.011-1.745 12.728-1.507 3.716.24 6.939 1.061 9.67 2.465 2.73 1.405 4.973 3.317 6.729 5.736 1.754 2.42 3.04 5.193 3.854 8.321.88 3.375 1.146 6.613.796 9.713-.35 3.101-1.376 5.947-3.082 8.541-1.704 2.594-4.121 4.901-7.248 6.924-3.127 2.023-7.029 3.642-11.705 4.861l-8.174 2.131 5.895 22.62-15.7 4.092-17.638-67.675 23.875-6.222zm8.656 33.211c4.087-1.066 6.775-2.808 8.062-5.227 1.288-2.419 1.476-5.378.563-8.877-.403-1.549-1.003-2.897-1.798-4.046-.795-1.147-1.785-2.055-2.967-2.724-1.183-.667-2.558-1.06-4.127-1.181-1.569-.12-3.345.079-5.327.594l-8.174 2.13 5.593 21.46 8.175-2.129zM384.613 57.693l.535 16.312 21.972-.721.394 11.994-21.972.72.546 16.647 28.689-.941.409 12.472-45 1.477-2.293-69.899 45-1.475.409 12.472-28.689.942zM505.423 59.454l-14.869 68.337-8.255-1.797c-1.22-.265-2.202-.683-2.945-1.255-.743-.57-1.416-1.429-2.019-2.575l-23.354-47.77c-.141 1.247-.311 2.446-.512 3.597-.202 1.152-.411 2.228-.629 3.228l-7.971 36.631-13.977-3.042 14.869-68.337 8.349 1.817c.688.149 1.26.308 1.715.473.456.165.853.374 1.19.627.338.252.644.574.921.961.275.387.574.895.896 1.521l23.574 48.112c.128-1.347.296-2.645.503-3.894.205-1.249.428-2.42.666-3.515l7.869-36.162 13.979 3.043zM580.667 133.549c-2.388 4.458-5.358 8.156-8.912 11.099-3.556 2.942-7.466 5.04-11.731 6.294s-8.778 1.596-13.536 1.025c-4.76-.569-9.536-2.141-14.331-4.709l-23.948-12.83 33.024-61.646 23.948 12.828c4.795 2.569 8.744 5.684 11.849 9.343 3.104 3.659 5.318 7.605 6.646 11.836 1.326 4.232 1.75 8.643 1.271 13.232-.482 4.59-1.908 9.101-4.28 13.528zm-14.64-7.842c1.632-3.046 2.71-6.008 3.235-8.885.524-2.877.504-5.566-.062-8.066-.567-2.5-1.677-4.782-3.33-6.847-1.652-2.065-3.847-3.831-6.583-5.296l-9.562-5.124-21.238 39.646 9.563 5.124c2.735 1.466 5.421 2.314 8.056 2.546s5.15-.109 7.545-1.023c2.396-.912 4.645-2.384 6.75-4.416 2.103-2.032 3.979-4.585 5.626-7.659zM620.081 215.225l-9.214-8.56c-1.031-.959-1.641-1.972-1.827-3.042-.187-1.067-.096-2.129.274-3.185l5.273-11.742-19.482-18.099-11.322 6.122c-.868.417-1.881.579-3.039.486-1.158-.093-2.229-.597-3.214-1.512l-9.284-8.625 67.434-32.811 12.168 11.304-27.767 69.664zm-.686-37.133l8.287-18.441c.476-1.217 1.075-2.615 1.799-4.194.723-1.578 1.539-3.255 2.447-5.03-1.681 1.104-3.287 2.079-4.816 2.928-1.533.849-2.888 1.555-4.066 2.119l-17.683 9.583 14.032 13.035zM662.651 231.75l-21.999 14.939-9.114-13.421 21.998-14.94 21.618-45.317 8.036 11.833c.792 1.166 1.145 2.27 1.061 3.313-.085 1.045-.397 2.078-.938 3.104l-11.281 19.614c-.856 1.588-1.671 3.05-2.445 4.389-.774 1.338-1.573 2.595-2.397 3.775 1.407-.376 2.863-.697 4.365-.963 1.502-.266 3.135-.496 4.899-.688l22.338-3.333c.47-.048.967-.058 1.491-.027.523.032 1.046.13 1.567.299.521.169 1.023.427 1.511.772.486.347.919.799 1.297 1.354l8.09 11.913-50.097 3.384z"/></g></svg>