<svg xmlns="http://www.w3.org/2000/svg" width="800" height="800" viewBox="0 0 800 800"><path fill="#fff" d="M794.125 400c0-217.673-176.457-394.125-394.125-394.125-217.673 0-394.125 176.453-394.125 394.125 0 217.667 176.452 394.125 394.125 394.125 217.668 0 394.125-176.458 394.125-394.125z"/><g><path fill="#E92247" d="M432.616 220.724c-29.714 34.514-25.846 67.534-25.846 67.534-4.181-3.256-50.543-29.541-58.026-143.399-82.506 111.164-20.299 251.005-20.299 251.005s-38.538-41.426-83.763-36.82c61.928 83.161 5.062 180.909 24.823 266.392 25.028 108.262 133.083 175.743 241.336 150.718 108.266-25.029 175.741-133.09 150.712-241.354-37.421-161.873-227.352-183.289-228.937-314.076z"/><path fill="#fff" d="M425.623 407.536c-95.315 22.035-154.718 117.178-132.686 212.483 22.039 95.335 117.166 154.753 212.49 132.715 95.323-22.036 154.733-117.178 132.694-212.515-22.031-95.307-117.17-154.72-212.498-132.683m73.245 316.831c-79.533 18.387-159.195-31.358-177.584-110.9-18.38-79.516 31.36-159.198 110.894-177.584 79.537-18.387 159.209 31.379 177.589 110.891 18.392 79.542-31.362 159.206-110.899 177.593"/><path fill="#fff" d="M564.386 521.757l-.184-.369c-.104-.248-.2-.495-.341-.731l-.234-.393c-.136-.226-.264-.429-.398-.631l-.307-.403c-.138-.177-.295-.354-.462-.527l-.353-.375-.508-.46-.412-.319c-.172-.14-.376-.279-.574-.404-.138-.081-.3-.185-.433-.281l-.626-.309-.487-.213-.188-.086-112.562-42.462c-3.563-1.343-7.579-.416-10.187 2.354l-82.512 87.559-.127.16-.345.405-.411.546-.284.45c-.114.194-.232.41-.338.615-.083.147-.154.304-.223.464-.097.206-.182.423-.258.639l-.167.493c-.073.215-.126.456-.174.677l-.098.495c-.041.243-.059.479-.082.742l-.045.457.016.808.018.406c.043.404.104.813.197 1.218l15.036 65.039c.092.396.219.801.356 1.175l.161.376c.117.255.219.502.341.728l.247.413c.132.209.255.435.398.629l.305.398c.141.183.291.354.454.532l.363.357c.167.172.336.328.512.461.134.124.267.236.405.329l.571.392c.151.093.295.192.448.265.205.126.414.229.614.328.168.071.334.165.489.212l.183.091 112.574 42.476c1.779.663 3.676.774 5.445.365 1.774-.408 3.419-1.34 4.742-2.722l82.501-87.572.129-.162.347-.405c.145-.179.298-.365.422-.566l.269-.432c.125-.195.248-.398.341-.604l.228-.476c.084-.192.18-.409.254-.638l.155-.478c.08-.213.14-.45.185-.679.027-.18.061-.34.099-.492l.081-.739.034-.479c.024-.256.007-.525-.015-.804l.004-.409c-.062-.396-.116-.813-.208-1.211l-15.036-65.041c-.093-.404-.225-.787-.345-1.182m-108.268-24.162l82.935 31.294-27.129 28.901-45.916-17.414-9.89-42.781zm-18.347 4.241l9.89 42.78-33.604 35.8-37.074-14.059 60.788-64.521zm-64.154 83.381l26.486 10.028-19.39 20.666-7.096-30.694zm101.334 77.452l-82.939-31.303 27.143-28.892 45.907 17.416 9.889 42.779zm-4.406-60.849l-37.461-14.201 27.431-29.182 37.451 14.185-27.421 29.198zm22.754 56.606l-9.891-42.774 33.616-35.804 37.058 14.052-60.783 64.526zm64.145-83.369l-26.482-10.063 19.386-20.635 7.096 30.698z"/></g><g fill="#E92247"><path d="M66.708 347.114l5.945 1.6c1.479.4 2.525 1.112 3.138 2.137.614 1.025.841 2.589.683 4.696l-.226 3.016 11.149 2.808.387-5.169c.112-1.5.631-2.536 1.556-3.109.926-.571 2.428-.604 4.508-.096l4.538 1.11-.709 9.478 18.656 4.766-.516 6.893c-.05.67-.257 1.288-.62 1.855-.362.567-.831 1.029-1.403 1.387-.572.358-1.215.591-1.93.697-.714.108-1.463.052-2.25-.167l-12.848-3.273-.591 7.899 13.562 3.373c.915.229 1.683.583 2.304 1.063.622.479 1.119 1.029 1.489 1.651.371.622.625 1.299.763 2.031.138.733.178 1.481.121 2.247l-.495 6.606-18.656-4.766-.315 4.212c-.112 1.499-.63 2.535-1.556 3.108-.925.572-2.428.605-4.508.096l-4.538-1.11.638-8.52-11.15-2.807-.712 9.524-5.945-1.6c-1.446-.396-2.484-1.107-3.113-2.134-.628-1.026-.865-2.592-.708-4.699l.244-3.254-13.839-3.539c-1.477-.398-2.596-1.211-3.354-2.44-.758-1.228-1.081-2.608-.966-4.14l.509-6.796 18.561 4.758.594-7.946-18.56-4.758.495-6.605c.057-.766.237-1.45.539-2.054.303-.602.684-1.103 1.147-1.502.463-.398.998-.671 1.602-.818.605-.147 1.253-.131 1.946.049l13.742 3.532.692-9.29zm8.63 23.607l-.595 7.945 11.149 2.809.595-7.946-11.149-2.808zM117.282 287.75c.115-.367.298-.711.551-1.034.252-.324.6-.6 1.041-.831l8.385-4.106c2.667 3.789 4.257 7.987 4.771 12.593.515 4.607-.096 9.672-1.832 15.198-1.593 5.068-3.882 9.338-6.869 12.81-2.986 3.473-6.437 6.128-10.353 7.967-3.915 1.838-8.191 2.852-12.828 3.038-4.638.187-9.398-.488-14.283-2.023-4.976-1.563-9.293-3.809-12.952-6.737s-6.539-6.332-8.64-10.212c-2.101-3.881-3.349-8.129-3.742-12.748-.393-4.618.182-9.384 1.727-14.3.786-2.502 1.749-4.791 2.887-6.866 1.139-2.073 2.398-3.951 3.781-5.629 1.383-1.679 2.877-3.154 4.485-4.428 1.608-1.272 3.249-2.332 4.925-3.181l5.366 7.421c.322.471.587.989.793 1.558.208.568.182 1.264-.077 2.088-.173.55-.458 1.032-.855 1.441-.397.413-.858.838-1.382 1.276-.523.44-1.095.924-1.713 1.45-.619.526-1.245 1.186-1.879 1.975-.634.791-1.262 1.75-1.886 2.88-.623 1.129-1.188 2.502-1.697 4.121-.806 2.563-1.069 5.056-.789 7.474.279 2.42 1.085 4.687 2.417 6.798 1.333 2.112 3.187 4.004 5.563 5.673 2.377 1.669 5.26 3.037 8.649 4.101 3.419 1.075 6.603 1.563 9.551 1.467 2.949-.097 5.583-.662 7.903-1.693 2.32-1.032 4.29-2.468 5.907-4.307s2.81-3.98 3.578-6.423c.44-1.403.775-2.708 1.002-3.911s.339-2.359.335-3.467c-.004-1.108-.134-2.188-.39-3.242-.256-1.053-.653-2.168-1.189-3.342-.189-.462-.317-.938-.382-1.428-.063-.489-.024-.963.121-1.421zM148.887 198.07c4.271 2.707 7.777 5.962 10.518 9.765 2.742 3.804 4.623 7.903 5.644 12.301 1.02 4.398 1.105 8.969.255 13.716-.849 4.747-2.73 9.418-5.642 14.013-2.913 4.595-6.339 8.296-10.278 11.102-3.939 2.809-8.119 4.695-12.54 5.663-4.421.968-8.936 1.022-13.545.166-4.609-.857-9.048-2.64-13.319-5.347-4.27-2.707-7.777-5.962-10.518-9.765-2.742-3.803-4.612-7.906-5.61-12.309-.998-4.401-1.068-8.982-.21-13.744.857-4.759 2.743-9.437 5.655-14.031 2.913-4.595 6.341-8.284 10.285-11.07 3.944-2.786 8.116-4.659 12.515-5.622 4.398-.961 8.903-1.014 13.512-.157 4.608.856 9.035 2.63 13.278 5.319zm-8.892 14.026c-2.919-1.85-5.787-3.137-8.605-3.863-2.817-.725-5.487-.892-8.007-.501-2.521.391-4.865 1.341-7.032 2.846-2.167 1.506-4.082 3.569-5.743 6.19-1.679 2.649-2.741 5.281-3.187 7.896-.445 2.616-.308 5.147.415 7.595.722 2.446 2.013 4.789 3.871 7.027 1.858 2.239 4.247 4.283 7.166 6.133 2.946 1.868 5.828 3.164 8.646 3.889 2.817.726 5.487.893 8.007.501 2.521-.391 4.863-1.35 7.025-2.878s4.083-3.616 5.762-6.265c1.662-2.622 2.718-5.229 3.169-7.824.45-2.593.315-5.113-.408-7.56-.722-2.448-2.012-4.79-3.87-7.029-1.861-2.235-4.263-4.288-7.209-6.157zM213.076 137.813c3.353 3.785 5.792 7.855 7.319 12.209 1.526 4.354 2.14 8.75 1.837 13.185-.303 4.436-1.547 8.788-3.732 13.052-2.185 4.265-5.314 8.202-9.387 11.809l-20.337 18.013-46.371-52.352 20.337-18.014c4.072-3.607 8.363-6.231 12.872-7.875 4.508-1.641 8.978-2.351 13.407-2.129 4.43.224 8.713 1.356 12.852 3.397 4.137 2.044 7.872 4.945 11.203 8.705zm-12.432 11.013c-2.292-2.586-4.696-4.626-7.212-6.115-2.517-1.491-5.045-2.403-7.587-2.739-2.542-.335-5.067-.085-7.577.748-2.51.835-4.927 2.28-7.25 4.339l-8.121 7.192 29.822 33.668 8.121-7.192c2.323-2.058 4.051-4.282 5.181-6.675 1.131-2.39 1.684-4.867 1.657-7.43-.026-2.563-.627-5.185-1.802-7.863-1.176-2.677-2.919-5.321-5.232-7.933zM237.75 98.086l7.543 14.472 19.494-10.161 5.546 10.642-19.494 10.161 7.698 14.769 25.454-13.267 5.768 11.067-39.926 20.81-32.325-62.017 39.926-20.811 5.769 11.067-25.453 13.268zM310.949 56.179c4.768-1.242 9.01-1.745 12.727-1.506 3.716.239 6.939 1.061 9.67 2.465 2.73 1.405 4.973 3.317 6.729 5.736 1.754 2.42 3.04 5.194 3.854 8.321.88 3.376 1.146 6.614.796 9.713-.35 3.101-1.376 5.949-3.081 8.542-1.705 2.595-4.122 4.902-7.249 6.924-3.127 2.023-7.029 3.644-11.704 4.861l-8.174 2.131 5.895 22.62-15.699 4.092-17.638-67.676 23.874-6.223zm8.655 33.212c4.088-1.065 6.775-2.808 8.063-5.227 1.287-2.418 1.475-5.376.563-8.876-.404-1.548-1.003-2.896-1.799-4.046-.795-1.148-1.784-2.056-2.966-2.723-1.183-.667-2.559-1.061-4.127-1.182-1.569-.119-3.345.079-5.326.595l-8.175 2.13 5.593 21.459 8.174-2.13zM384.584 57.678l.536 16.311 21.972-.72.393 11.993-21.972.721.546 16.646 28.688-.94.41 12.473-45 1.476-2.292-69.898 44.999-1.476.41 12.473-28.69.941zM505.393 59.438l-14.869 68.337-8.254-1.797c-1.221-.264-2.201-.682-2.945-1.255-.744-.571-1.416-1.429-2.018-2.576l-23.354-47.769c-.141 1.246-.311 2.445-.514 3.597-.199 1.153-.41 2.229-.627 3.229l-7.971 36.63-13.977-3.041 14.869-68.337 8.348 1.816c.688.15 1.26.307 1.715.472s.852.374 1.189.627c.338.253.645.574.922.962.275.387.574.895.896 1.521l23.574 48.112c.129-1.347.295-2.645.504-3.894.205-1.248.428-2.419.666-3.515l7.867-36.161 13.979 3.042zM580.637 133.534c-2.387 4.457-5.357 8.156-8.912 11.098-3.555 2.943-7.465 5.041-11.73 6.295s-8.779 1.596-13.537 1.026c-4.758-.57-9.535-2.141-14.33-4.709l-23.947-12.829 33.023-61.648 23.947 12.83c4.795 2.568 8.746 5.683 11.85 9.341 3.104 3.661 5.318 7.606 6.646 11.837 1.326 4.233 1.75 8.644 1.27 13.232s-1.907 9.098-4.28 13.527zm-14.639-7.844c1.631-3.046 2.711-6.008 3.234-8.884.525-2.877.504-5.565-.062-8.065s-1.676-4.782-3.328-6.848c-1.654-2.064-3.848-3.831-6.584-5.296l-9.562-5.123-21.236 39.646 9.561 5.123c2.736 1.465 5.422 2.315 8.057 2.546 2.635.232 5.15-.107 7.545-1.021 2.395-.914 4.645-2.385 6.75-4.416 2.102-2.034 3.977-4.586 5.625-7.662zM620.051 215.208l-9.213-8.56c-1.033-.959-1.643-1.972-1.828-3.04-.188-1.069-.096-2.13.273-3.187l5.275-11.741-19.482-18.099-11.322 6.122c-.869.417-1.881.58-3.039.487-1.158-.095-2.23-.598-3.215-1.513l-9.283-8.625 67.434-32.812 12.168 11.304-27.768 69.664zm-.688-37.13l8.289-18.443c.475-1.217 1.074-2.615 1.799-4.193.723-1.577 1.537-3.254 2.447-5.031-1.682 1.104-3.287 2.079-4.818 2.928s-2.887 1.556-4.064 2.121l-17.684 9.583 14.031 13.035zM662.621 231.732l-21.998 14.94-9.115-13.421 21.998-14.94 21.619-45.317 8.035 11.834c.791 1.165 1.145 2.27 1.061 3.312-.084 1.045-.396 2.078-.938 3.104l-11.281 19.613c-.857 1.587-1.672 3.05-2.445 4.388-.775 1.338-1.574 2.596-2.398 3.775 1.408-.375 2.863-.696 4.365-.963 1.502-.265 3.135-.495 4.9-.688l22.338-3.333c.469-.049.967-.058 1.49-.027s1.047.13 1.568.299c.52.169 1.021.426 1.51.773.486.345.918.797 1.297 1.352l8.09 11.913-50.096 3.386z"/></g></svg>