<?xml version="1.0" encoding="utf-8"?>
<!-- Generator: Adobe Illustrator 15.0.0, SVG Export Plug-In  -->
<!DOCTYPE svg PUBLIC "-//W3C//DTD SVG 1.1//EN" "http://www.w3.org/Graphics/SVG/1.1/DTD/svg11.dtd" [
	<!ENTITY ns_flows "http://ns.adobe.com/Flows/1.0/">
]>
<svg version="1.1"
	 xmlns="http://www.w3.org/2000/svg" xmlns:xlink="http://www.w3.org/1999/xlink" xmlns:a="http://ns.adobe.com/AdobeSVGViewerExtensions/3.0/"
	 x="0px" y="0px" width="146px" height="236px" viewBox="0 0 146 236" overflow="visible" enable-background="new 0 0 146 236"
	 xml:space="preserve">
<defs>
</defs>
<path fill="#E74F13" d="M90.607,33.626c-13.304,9.756-14.635,21.732-14.635,21.732C74.764,53.866,60.541,40.804,67.193,0
	c-38.199,32.512-27.65,86.959-27.65,86.959S29.319,69.185,12.975,67.122C28.054,101.532,0,131.396,0,163.189
	c0,40.26,32.639,72.899,72.897,72.899c40.263,0,72.903-32.64,72.903-72.899C145.801,102.989,80.496,79.925,90.607,33.626z"/>
<path fill="#252526" d="M72.899,99.007c-35.447,0-64.183,28.736-64.183,64.185c0,35.446,28.735,64.181,64.183,64.181
	s64.185-28.734,64.185-64.181C137.084,127.743,108.347,99.007,72.899,99.007 M72.899,216.832c-29.576,0-53.639-24.064-53.639-53.641
	c0-29.577,24.062-53.642,53.639-53.642c29.578,0,53.643,24.064,53.643,53.642C126.542,192.768,102.478,216.832,72.899,216.832"/>
<path fill="#252526" d="M112.556,150.654c-0.006-0.05-0.021-0.099-0.028-0.147c-0.016-0.097-0.033-0.193-0.06-0.287
	c-0.015-0.057-0.036-0.109-0.053-0.164c-0.026-0.084-0.057-0.166-0.089-0.249c-0.023-0.055-0.05-0.114-0.074-0.167
	c-0.036-0.076-0.074-0.151-0.117-0.224c-0.031-0.056-0.064-0.107-0.098-0.159c-0.043-0.072-0.095-0.14-0.144-0.209
	c-0.038-0.049-0.076-0.099-0.118-0.146c-0.053-0.064-0.109-0.127-0.166-0.185c-0.048-0.046-0.092-0.092-0.137-0.134
	c-0.061-0.056-0.127-0.109-0.193-0.163c-0.054-0.04-0.103-0.079-0.158-0.115c-0.021-0.014-0.035-0.029-0.055-0.042l-36.271-24.184
	c-1.149-0.764-2.642-0.764-3.788,0l-36.275,24.184c-0.018,0.013-0.034,0.028-0.055,0.042c-0.054,0.036-0.103,0.075-0.156,0.115
	c-0.064,0.054-0.129,0.107-0.191,0.163c-0.047,0.042-0.091,0.088-0.137,0.134c-0.057,0.058-0.115,0.12-0.168,0.185
	c-0.042,0.048-0.08,0.098-0.118,0.146c-0.049,0.069-0.099,0.137-0.144,0.209c-0.033,0.052-0.066,0.104-0.098,0.159
	c-0.043,0.072-0.079,0.147-0.115,0.224c-0.026,0.053-0.055,0.112-0.076,0.167c-0.034,0.083-0.061,0.165-0.089,0.249
	c-0.017,0.055-0.034,0.107-0.053,0.164c-0.024,0.094-0.04,0.19-0.062,0.287c-0.005,0.049-0.021,0.098-0.026,0.147
	c-0.019,0.146-0.028,0.294-0.028,0.444v24.184c0,0.152,0.01,0.299,0.028,0.445c0.006,0.049,0.021,0.1,0.026,0.147
	c0.021,0.096,0.037,0.192,0.062,0.286c0.019,0.057,0.036,0.111,0.053,0.166c0.028,0.082,0.055,0.167,0.089,0.249
	c0.021,0.057,0.05,0.111,0.076,0.165c0.036,0.077,0.072,0.153,0.115,0.228c0.031,0.052,0.064,0.104,0.098,0.156
	c0.045,0.071,0.095,0.141,0.144,0.208c0.038,0.053,0.076,0.099,0.118,0.147c0.053,0.062,0.111,0.126,0.168,0.184
	c0.046,0.046,0.09,0.094,0.137,0.134c0.062,0.056,0.127,0.111,0.191,0.162c0.054,0.041,0.103,0.08,0.156,0.117
	c0.021,0.014,0.037,0.029,0.055,0.043l36.275,24.182c0.573,0.383,1.233,0.575,1.892,0.575c0.66,0,1.32-0.192,1.896-0.575
	l36.271-24.182c0.02-0.014,0.034-0.029,0.055-0.043c0.056-0.037,0.104-0.076,0.158-0.117c0.066-0.051,0.133-0.106,0.193-0.162
	c0.045-0.04,0.089-0.088,0.137-0.134c0.057-0.058,0.113-0.121,0.166-0.184c0.042-0.049,0.08-0.095,0.118-0.147
	c0.049-0.067,0.101-0.137,0.144-0.208c0.033-0.052,0.066-0.104,0.098-0.156c0.043-0.074,0.081-0.15,0.117-0.228
	c0.024-0.054,0.051-0.108,0.074-0.165c0.032-0.082,0.062-0.167,0.089-0.249c0.017-0.055,0.038-0.109,0.053-0.166
	c0.026-0.094,0.044-0.19,0.06-0.286c0.007-0.048,0.022-0.099,0.028-0.147c0.017-0.146,0.03-0.293,0.03-0.445v-24.184
	C112.586,150.948,112.572,150.801,112.556,150.654 M76.31,133.29l26.724,17.812l-11.933,7.986l-14.791-9.891V133.29z M69.491,133.29
	v15.908l-14.788,9.891l-11.938-7.986L69.491,133.29z M40.038,157.483l8.531,5.708l-8.531,5.706V157.483z M69.491,193.092
	l-26.726-17.814l11.938-7.983l14.788,9.89V193.092z M72.899,171.259l-12.062-8.067l12.062-8.068l12.065,8.068L72.899,171.259z
	 M76.31,193.092v-15.908l14.791-9.89l11.933,7.983L76.31,193.092z M105.765,168.897l-8.533-5.706l8.533-5.708V168.897z"/>
</svg>
